<?xml version="1.0" encoding="utf-8"?>
<!-- Generator: Adobe Illustrator 15.0.0, SVG Export Plug-In . SVG Version: 6.00 Build 0)  -->
<!DOCTYPE svg PUBLIC "-//W3C//DTD SVG 1.1//EN" "http://www.w3.org/Graphics/SVG/1.1/DTD/svg11.dtd">
<svg version="1.1" id="Layer_1" xmlns="http://www.w3.org/2000/svg" xmlns:xlink="http://www.w3.org/1999/xlink" x="0px" y="0px"
	 width="595.279px" height="592.445px" viewBox="0 0 595.279 592.445" enable-background="new 0 0 595.279 592.445"
	 xml:space="preserve">
<g>
	<g>
		<polygon points="459.216,537.578 459.216,524.5 64.016,524.5 64.016,540.209 		"/>
		<path d="M70.093,516.893h86.632c0,0,6.083-21.287,12.167-27.348C168.898,489.545,112.656,443.938,70.093,516.893z"/>
		<path d="M164.839,516.893h78.029c0,0-1.019-18.234,5.578-28.889c0,0-5.066-12.662-42.558-8.609
			C168.386,483.461,164.839,516.893,164.839,516.893z"/>
		<path d="M125.83,469.77c0,0,25.323-2.529,30.896,4.072c0,0,3.555-18.234,18.745-25.855
			C175.476,447.988,139.509,439.375,125.83,469.77z"/>
		<path d="M162.814,475.859c0,0,9.12,4.041,11.15,8.107c0,0,49.646-27.883,80.564-2.023c0,0,5.065-12.18,20.77-15.729
			c0,0-24.835-29.377-60.302-28.371C179.536,438.875,162.814,475.859,162.814,475.859z"/>
		<path d="M250.464,516.893h93.228c0,0-0.5-36.992-28.883-44.074C286.448,465.734,250.975,470.799,250.464,516.893z"/>
		<path d="M340.655,481.438c0,0-19.258-21.793-58.272-18.234c0,0-11.655-19.256-28.883-22.299c0,0,15.203-14.197,42.051-14.197
			c26.854,0,60.295,23.316,66.874,46.111C362.428,472.811,347.239,473.836,340.655,481.438z"/>
		<path d="M246.922,438.361c0,0-8.102-6.596-22.799-4.578c0,0,7.596-10.125,24.323-10.125c16.727,0,17.727,3.555,17.727,3.555
			S250.464,429.236,246.922,438.361z"/>
		<path d="M371.055,471.311c0,0-16.729-32.43-31.406-35.479c0,0,46.604-3.555,74.992,39.516
			C414.635,475.342,383.716,466.223,371.055,471.311z"/>
		<path d="M350.792,516.893h99.305c0,0-15.715-31.414-40.525-34.943c-24.828-3.555-49.67-6.084-65.879,8.59
			C343.69,490.539,351.286,499.67,350.792,516.893z"/>
		<path d="M575.546,310.341c0-49.158,0.869-62.106,0.869-62.106l-141.01,0.429c0,0,0,38.818,0,52.188
			c0,13.364,4.738,61.653,62.945,68.13c0,0,0.869,6.887-4.311,13.78c-5.18,6.905,0,15.966,0.869,17.264
			c0.863,1.292,3.441,7.75,3.441,12.501c0,4.744,3.027,32.348,2.152,42.272c-0.855,9.896-4.736,9.896-5.166,15.953
			c-0.43,6.033,0.863,15.084,7.328,22.424c0,0,2.59,5.168-1.293,9.477c-3.887,4.316-13.369,6.488-15.096,14.674
			c0,0-22.859,9.508-23.275,19.848H563.05c0,0,1.279-10.787-25.441-15.961c0,0-5.18-15.959-15.525-18.107
			c0,0-4.32-6.055-2.146-10.355c2.146-4.316,5.172-8.627,4.736-16.813c-0.428-8.186-6.904-11.648-6.904-18.979
			c0-7.328,0-42.688,0-42.688s-0.863-3.453,2.168-9.924c3.006-6.465,3.439-9.488,3.006-13.793c-0.418-4.315-6.9-15.09-6.9-21.144
			C516.036,369.398,575.546,359.487,575.546,310.341z M508.274,362.934c-35.359,0-51.742-23.722-60.803-38.372
			c-9.061-14.668-6.043-53.486-6.043-53.486l83.221-0.417c0,5.596,0,25.431,0,25.431c12.086-5.161,8.621-25.871,8.621-25.871h11.227
			c3.447,38.378-8.203,75.035-8.203,75.035c21.996-11.208,18.979-74.184,18.979-74.184l15.852,0.03
			c0,15.09-1.189,43.533-5.076,53.022C562.18,333.616,543.637,362.934,508.274,362.934z"/>
		<path d="M166.35,438.35c1.02,1.512,8.614,1.512,13.681,7.084c0,0,7.602-10.645,28.877-12.156l0.506-8.613
			c0,0,5.065-12.662,11.156-14.174c0,0-4.562-3.048-13.687-3.048c0,0-5.572-5.578-3.542-8.613
			c2.029-3.048,11.655-7.597,11.655-18.24c0-10.638-7.597-17.239-8.107-25.341c-0.506-8.107,12.673-21.787,23.816-25.841
			c0,0,0.507-6.078-3.548-6.078s-73.463-0.512-73.463-0.512s-8.108,4.572-3.042,9.632c5.064,5.06,19.764,13.173,19.764,22.281
			c0,9.132-6.59,10.149-6.59,25.347c0,15.191,8.612,16.216,10.138,18.745c1.523,2.53-1.519,7.084-1.519,7.084
			s-12.661,2.042-16.723,6.084c0,0,9.639,6.078,9.639,15.191L166.35,438.35z"/>
		<path d="M202.329,117.619l-13.173-1.006c0,0-1.52-5.066,2.022-10.144c3.548-5.066,5.072-9.108,4.054-14.18
			c-1.012-5.066-13.679-21.787-8.606-31.913c0,0-15.209,15.704-14.703,29.389c0.512,13.679,8.619,19.746,8.619,25.835l-11.655,0.512
			v199.627h36.997L202.329,117.619z M185.608,89.766c-1.013,8.107-3.042,12.662-3.042,12.662s-3.535-11.15-1.012-15.709
			C184.089,82.163,186.626,81.652,185.608,89.766z"/>
		<path d="M105.554,117.619l-13.167-1.006c0,0,1.519-5.066,5.071-10.144c3.542-5.066,5.064-9.108,4.054-14.18
			c-1.018-5.066-13.68-21.787-8.619-31.913c0,0-15.191,15.704-14.69,29.389c0.512,13.679,5.564,19.746,5.564,25.835l-11.643,0.513
			V315.74h36.979L105.554,117.619z M91.869,92.295c-1,8.114-3.03,12.662-3.03,12.662s-3.548-11.144-1.012-15.704
			C90.364,84.694,92.887,84.188,91.869,92.295z"/>
		<path d="M59.438,530.066H30.561c0,0,3.555-14.705,15.709-21.301c12.168-6.57,29.896-17.727,29.896-28.371
			c0-10.637,0-33.941,0-33.941s-5.066-2.525-4.042-8.096c1.006-5.578,3.542-7.596,2.53-10.645
			c-1.02-3.041-7.098-14.698-14.692-14.191c-7.607,0.512,7.09-6.072,14.18-5.561c0,0,6.584-3.554,5.578-8.119
			c-1.018-4.566-12.162-13.174-11.655-24.823c0.507-11.662,6.077-12.68,4.561-20.787c-1.524-8.103-20.271-16.198-20.271-23.3
			c0-7.089,6.084-6.072,12.175-6.072c6.07,0,61.296,0,61.296,0s8.106,0.494,8.106,5.566c0,5.078-21.281,8.608-21.281,19.758
			c0,11.161,7.097,16.227,7.097,26.353c0,10.132-6.59,19.745-11.149,23.306c0,0-1.522,6.59,4.555,7.596
			c6.084,1.012,11.655,2.023,12.168,4.554c0.5,2.548-12.675,5.084-12.675,11.155c0,6.072,3.036,7.096,3.549,14.697
			c0.506,7.598-3.549,4.555-4.555,8.109c-1.023,3.547,0,25.322,0,25.322S64.516,493.568,59.438,530.066z"/>
	</g>
</g>
<g display="none">
	<path display="inline" d="M316.737,208.626c49.414-54.349,59.296-143.278,59.296-143.278H352.4c0,0-9.69,86.458-57.361,140.974
		c-7.506-8.584-14.061-17.937-19.793-27.646h28.961c5.029-8.519,9.466-17.245,13.28-25.96h-55.521
		c-4.798-10.947-8.68-21.74-11.84-31.883h79.195c2.947-9.441,5.28-18.257,7.062-25.966h-93.306
		c-4.06-17.638-5.405-29.52-5.405-29.52h-23.607c0,0,9.882,88.929,59.284,143.278c3.397,3.732,6.685,7.358,9.888,10.917
		c-43.432,48.212-69.172,81.398-69.172,127.402c0,45.985,25.74,79.184,69.172,127.415c-3.203,3.56-6.489,7.18-9.888,10.912
		c-49.402,54.349-59.284,143.271-59.284,143.271h23.607c0,0,1.251-10.87,4.883-27.162H336.9c-1.702-7.644-3.923-16.424-6.828-25.973
		h-80.678c3.06-10.078,6.846-20.896,11.542-31.871h57.594c-3.709-8.687-7.995-17.43-12.894-25.972h-31.813
		c6.055-10.543,13.103-20.704,21.216-29.979C342.71,542.089,352.4,628.553,352.4,628.553h23.633c0,0-9.882-88.923-59.296-143.271
		c-3.394-3.732-6.679-7.353-9.888-10.924c43.438-48.219,69.184-81.417,69.184-127.402c0-45.997-25.746-79.19-69.184-127.402
		C310.058,215.984,313.344,212.359,316.737,208.626z M326.332,271.958h-50.729c-6.024,8.745-11.036,17.322-15.037,25.984h80.804
		c5.53,11.959,9.055,24.121,10.376,37.187H250.191c-0.388,3.863-0.661,7.774-0.661,11.816c0,4.857,0.369,9.548,0.935,14.156h101.008
		c-1.603,13.025-5.34,25.187-11.167,37.199h-78.68c4.191,8.625,9.453,17.203,15.633,25.973h47.407
		c-8.237,11.668-18.186,23.739-29.633,36.795c-36.229-41.308-57.367-72.488-57.367-114.123c0-41.646,21.14-72.815,57.367-114.115
		C307.255,246.748,317.797,259.559,326.332,271.958z"/>
</g>
<g display="none">
	<g display="inline">
		<path d="M175.239,420.242c0,0,36.89,11.436,50.962,46.992C226.206,467.229,219.331,423.701,175.239,420.242z M552.914,90.648
			c0,0-31.329-32.592-47.177-24.972c-15.846,7.625,1.751,31.556,1.751,31.556l-79.375,78.607c0,0-23.191-18.12-31.086-11.596
			c-13.311,11.025-2.423,24.692-2.423,24.692L169.072,416.409c0,0-6.53,4.798,6.065,21.014l-15.395,17.353
			c0,0-2.952,4.18,1.232,7.132l-25.663,28.907c0,0-4.107,11.743-3.285,16.494c0,0-116.83,115.057-114.33,118.907
			c2.5,3.857,116.83-115.044,116.83-115.044s10.417,0.054,12.805-0.363c2.375-0.41,32.198-30.05,32.198-30.05
			s5.19,5.232,7.959,3.542c2.774-1.708,17.983-16.572,17.983-16.572s12.471,11.947,20.472,5.055
			c8.007-6.882,225.546-227.469,225.546-227.469s15.238,10.245,25.418,1.762c10.181-8.495-12.286-35.872-12.286-35.872
			l79.791-77.434c0,0,18.745,16.376,29.593,1.042C584.826,119.465,552.914,90.648,552.914,90.648z M141.456,508.755
			c-0.727-5.382-6.064-6.721-6.064-6.721C148.451,496.475,141.456,508.755,141.456,508.755z M180.805,440.119
			c0,0,11.804,4.512,22.613,22.245L180.805,440.119z M226.206,467.229c-8.5,7.591-20.37-4.459-20.37-4.459
			c-8.036-18.222-25.239-25.675-25.239-25.675c-13.578-14.815-7.542-18.924-7.542-18.924l73.208-73.029
			c0,0,3.06,15.204,18.971,34.312c17.287,14.995,32.711,16.834,32.711,16.834S234.701,459.65,226.206,467.229z M302.706,384.853
			c-11.357-26.841-44.193-43.247-44.193-43.247C294.188,349.559,302.706,384.853,302.706,384.853z M310.814,378.555
			c-16.275-37.634-45.896-46.015-45.896-46.015C300.878,338.606,310.814,378.555,310.814,378.555z M322.534,373.031
			c-2.661-4.131-26.662-40.313-56.033-50.985l2.744-2.5c31.021,10.941,56.059,50.652,56.059,50.652L322.534,373.031z
			 M526.097,86.683l6.167,21.615l-83.655,83.601c-7.988-11.667-16.715-13.959-16.715-13.959L526.097,86.683z M473.594,242.123
			c-9.084,7.691-17.066,0.488-17.066,0.488s16.911-12.096-16.312-44.979c-33.224-32.883-42.538-12.287-42.538-12.287
			s-8.007-10.876,1.887-17.478c9.899-6.602,44.712,28.455,44.712,28.455S482.683,234.438,473.594,242.123z M462.098,207.347
			c0,0-2.78-7.013-10.257-12.126l83.215-83.738l19.489,6.453L462.098,207.347z"/>
	</g>
</g>
<g display="none">
	<path display="inline" d="M144.904,234.729c0,0-3.221-11.281-14.502-17.715c-11.274-6.441-9.655-10.465-14.494-10.465
		c-4.84,0-16.108,0.798-17.722,5.631c-1.614,4.833-1.613,9.662-4.024,13.691c-2.417,4.018-4.03,16.906-3.227,20.936
		c0.81,4.03,4.029,7.245,2.417,9.667c-1.607,2.411-13.691,16.918-17.723,23.353c-4.022,6.447-26.572,34.627-30.604,41.074
		c-4.023,6.447-9.661,8.864-8.054,13.691c1.612,4.828,9.66,3.214,13.69,4.024c4.024,0.804,16.104,4.036,24.162,4.036
		c8.055,0,12.882-1.613,15.299-0.815c0,0-2.417,5.643,3.228,5.643c5.644,0,16.912-4.03,21.746-2.423
		c4.826,1.613,30.603,6.453,41.067,3.221c0,0,12.078,8.857,13.691,15.311c1.613,6.435,4.833,16.906,11.273,24.156
		c6.446,7.25,21.739,24.169,32.21,28.996c0,0-53.146,0-57.176-1.613c-4.023-1.619-13.686-7.256-18.52-3.221
		c-4.834,4.019-10.472,5.626-13.687,5.626s-12.084,3.231-13.696,5.637c0,0,11.273-3.22,12.888,0.804c0,0-9.667,8.062-10.465,12.092
		c0,0,8.852-4.834,12.078-4.036c3.221,0.82,3.221,0.82,3.221,0.82s4.022,3.222,8.856,2.405c0,0-8.054,5.637-9.667,10.471
		c0,0,9.667-5.625,13.687-3.221c0,0,7.25,0.815,13.69,0c0,0-2.41,1.613-3.221,4.834c0,0,4.827-2.405,8.048-0.804
		c3.228,1.613,3.228,1.613,3.228,1.613s4.029,0,8.864-0.815c4.833-0.804,8.054-5.626,14.493-4.834
		c6.447,0.815,18.521,0.815,23.359,0c4.834-0.798,7.25-4.833,20.936-4.03c13.691,0.815,40.271,0.815,53.956-14.501
		c0,0,52.344-19.328,109.525,14.501c0,0,23.359,21.752,45.914,24.169c0,0-13.697,9.655-16.918,10.466
		c-3.226,0.81-10.477,0-12.882,2.41c0,0-1.648,0.727-7-0.929c-5.334-1.644-13.138-6.977-16.43-4.929
		c-3.286,2.06-6.566,4.929-10.675,5.333c-4.106,0.423-11.09,5.757-11.507,7.394c-0.403,1.649-9.445,6.995-10.269,9.042
		c0,0,11.091-1.637,12.732-0.81c1.638,0.81-5.75,5.328-7.804,10.668c0,0,9.03-6.982,13.965-4.524c0,0,12.322,0,13.959-0.82
		c0,0-11.494,5.756-11.904,11.09c0,0,9.446-6.571,13.549-4.519c0,0,7.81,0.404,10.685-1.231c0,0-1.236,3.695-1.236,5.333
		c0,0,3.29-2.458,5.75-2.869c0,0,12.327-2.875,15.613-5.756c0,0,25.057-4.103,28.746-3.691c3.702,0.411,40.259,7.812,39.433-4.106
		c-0.822-11.911-2.055-23.001,0.826-26.692c2.869-3.696,4.097,13.966,4.097,19.716c0,5.757,11.09,45.188-81.315,39.843
		c0,0-27.931,3.279-66.54-19.716c-38.61-22.996-82.971-28.348-96.93-27.919c-13.966,0.405-58.736,4.923-90.77,16.829
		c-32.044,11.917-64.082,11.506-67.771,11.09c0,0,6.161,9.857,66.54-2.875c60.374-12.732,89.126-18.478,118.698-9.841
		c29.567,8.608,88.311,40.241,101.447,43.932c13.139,3.709,75.987,20.121,117.057-4.923c0,0,24.431-9.209,27.413-52.176
		c0.042-0.523,0.07-1.084,0.106-1.625c0,0,8.619-6.989,9.853-10.686c1.232-3.697,13.965-22.579,19.716-25.871
		c5.75-3.286,5.75-6.155,5.75-8.632c0-2.458-1.231-9.847-0.416-12.732c0,0,1.643-2.054-2.453-2.459
		c-4.107-0.41-13.562-3.292-14.382-5.333c0,0,3.286-12.322,2.875-18.49c-0.41-6.155,4.519,3.292,4.519,6.167
		c0,2.863,2.144-13.293-1.644-19.312c-3.785-6-0.815-19.715-3.285-28.341c-2.465-8.62,6.792,13.037,7.09,16.18
		c0.297,3.143-2.981-20.704-10.376-29.722c0,0,9.853,8.614,9.853,11.501c0,2.869-4.513-14.787-10.674-20.948
		c-6.16-6.167-5.751-9.864-5.751-9.864s9.447,7.798,10.27,10.686c0.814,2.869-4.936-8.632-10.679-17.257
		c-5.758-8.62-6.572-10.673-6.572-10.673s13.966,10.673,15.197,13.965c1.237,3.286-9.853-16.84-16.014-20.537
		c-6.167-3.697-11.084-8.626-11.084-8.626s13.139,8.626,15.608,10.269c2.458,1.643-12.52-13.668-17.146-16.894
		c-4.631-3.232-11.606-8.572-11.606-8.572s7.077,0.464,10.269,3.286c3.19,2.821-6.982-8.215-12.321-10.269
		c-5.335-2.054,0.409-4.519,3.278-2.875c2.889,1.637-8.202-6.982-13.542-9.858c-5.34-2.875-8.626-4.518-8.626-4.518
		s18.479,7.394,19.716,8.625c1.238,1.232-19.716-14.376-23.411-15.197c-3.691-0.815,9.256,1.536,11.612,2.405
		c2.357,0.881-23.524-12.263-27.222-13.084c-3.697-0.828-3.286-4.107-3.286-4.107s15.203,2.464,18.066,4.107
		c2.882,1.643-33.259-14.787-36.955-14.787s7.805-1.232,9.847-0.821c2.06,0.411-21.353-4.518-23.413-4.518
		c-2.054,0,10.687-2.054,10.687-2.054s-25.877-0.411-27.109-1.643c-1.231-1.238-19.722-4.107-25.466-3.697
		c-5.75,0.405,9.446-2.875,11.501-2.47c2.06,0.417-25.46,2.061-30.807,3.703c-5.334,1.637-7.388,0.411-7.388,0.411
		s9.036-4.518,11.084-4.518s-25.883,0-30.389,2.47c-4.524,2.458-29.984,4.518-34.093,5.75c-4.107,1.232-6.564,2.054-6.564,2.054
		s9.029-5.346,12.31-5.756c3.292-0.411-30.383,8.215-32.853,10.679c-2.472,2.471-10.275,6.161-12.322,7.399
		c-2.054,1.226-20.538,11.084-25.877,12.316c-5.34,1.238-29.984,10.274-43.539,8.221c0,0-2.94-12.858-8.811-19.466
		c-0.34-0.381-0.69-0.744-1.041-1.071c-6.572-6.173-4.931-4.524-8.626-6.173c-3.696-1.637-10.681-5.334-13.556-2.465
		C157.255,214.603,148.159,231.45,144.904,234.729z"/>
</g>
<g display="none">
	<path display="inline" d="M299.039,502.338c0.023,0.012,0.102,0.054,0.102,0.054S299.432,501.409,299.039,502.338z
		 M314.064,549.919c1.488-1.507,10.388-0.994,10.388-0.994c-4.94-6.436-27.691-2.971-32.146-4.447
		c-4.452-1.477-1.987-19.286,0.493-25.722c2.472-6.436,3.959-10.388,5.441-14.341c0.404-1.107,0.648-1.72,0.804-2.077
		c-1.084-0.53-24.395-11.84-23.919-8.953c1.132,6.805-5.07,28.842-8.542,36.253c-3.465,7.43-8.404,10.389-14.834,11.375
		c-6.436,0.994-15.335-1.976-24.233-1.486c-8.905,0.5-12.363,6.929-9.899,5.939c2.478-0.987,3.959-0.506,5.447,0.488
		c1.476,1,6.923,6.429,6.923,6.429c-23.246,0.5-26.216,5.441-26.216,5.441c-8.906,2.476-10.389,6.935-10.389,6.935
		c2.477-2.977,8.905-1.994,8.905-1.994c1.482,6.441,33.133,1.994,33.133,1.994c-12.862,8.895-9.882,13.834-9.882,13.834
		c1.482-3.458,6.418-2.464,6.418-2.464c5.446,7.911,20.774-2.971,34.621-9.405c13.847-6.424,33.127-8.398,41.538-8.898
		C316.552,557.33,312.57,551.4,314.064,549.919z M385.111,583.54c0,0-10.543-1.315-15.815-2.631
		c-5.274-1.316-7.912-14.508-3.959-19.781c3.959-5.274,7.507-20.579,7.507-20.579s-16.739,7.441-30.599-1.935
		c5.305,19.565-9.394,38.509-11.37,40.979c-1.977,2.477-17.786,1.977-31.639-0.494c-13.847-2.477-19.299,4.446-19.299,4.446
		c6.439-1.477,11.376,2.965,11.376,2.965c-2.472,1.988,0.994,8.417,0.994,8.417c-20.275,3.459-22.752,10.395-22.752,10.395
		c2.971-2.494,8.904,0,8.904,0c3.472,4.935,8.899,5.423,13.347,3.439c4.459-1.964,26.71,0,26.71,0s-3.452,2.482-10.395,5.937
		c-6.923,3.464-5.922,12.37-5.922,12.37c0.5-3.459,3.798-1.328,13.024-1.328c9.231,0,50.116-25.043,61.975-26.377
		c11.888-1.321,11.888-5.28,11.888-5.28c-3.971-11.857,14.489-10.542,14.489-10.542C393.022,575.629,385.111,583.54,385.111,583.54z
		 M96.465,184.928l3.959-24.216l-25.229-19.793l-8.405,0.488c0,0-29.675,11.87-20.77,49.45
		c8.898,37.598,24.223,33.645,24.223,33.645l0.494-11.382C70.743,213.121,93.494,209.656,96.465,184.928z M535.472,252.522
		c-22.437-30.341-54.093-9.233-54.093-9.233c-30.329-32.966-44.813,19.775-44.813,19.775
		c-36.938-23.728-81.772-38.241-129.266-43.509c-47.468-5.292-113.406,19.775-113.406,19.775c-9.232-6.596-6.603-55.385-5.28-63.308
		c1.321-7.917,3.959-39.563-11.864-76.494c-15.828-36.931-56.712-35.598-56.712-35.598c-20.441,0.161-24.562,3.286-41.384,10.209
		c-16.816,6.929-7.911,17.311-7.911,17.311c-0.988-3.959,1.488-9.388,1.488-9.388c53.401-10.888,72.194,17.299,72.194,17.299
		c5.936-0.482,21.259,10.899,26.698,16.817c5.447,5.947-2.465,24.24-11.864,43.033c-9.404,18.787-31.161,8.899-40.056,6.929
		c-8.898-1.982-18.787,13.353-18.787,13.353c1.477,1.494,4.446,1.494,4.446,1.494c1.488,13.358-9.895,34.104-16.322,48.456
		c-6.43,14.346-5.436,40.063-6.917,58.844c-1.481,18.816,3.464,35.127,4.946,39.092c1.481,3.947,7.417,11.858,7.911,16.311
		s1.487,8.906,3.459,10.388c1.981,1.477,3.965,1.477,8.423,6.911c4.447,5.453,5.441,9.9,7.917,12.37
		c2.465,2.47,6.418,4.458,6.418,8.911c0,4.441,2.476,5.435,4.952,3.453c2.471-1.976,7.417,1.494,10.388,4.953
		c2.965,3.446,3.453,0.994,3.953,10.875c0.494,9.876,3.464-0.994,6.923,4.447c3.465,5.429,27.198,38.073,29.675,43.526
		c2.482,5.435,4.946,0.987,18.8,10.876c13.847,9.888,45.984,23.232,51.426,24.239c5.453,0.977,25.233-1.007,27.699,5.436
		c0,0,11.875-0.506,14.34,2.958c2.471,3.465,3.959,5.447,12.857,3.965c5.363-0.893,18.306,17.299,25.229,26.216
		c6.911,8.888,13.353,12.347,13.353,12.347c-0.487-3.959,13.847,4.459,16.812,4.959c2.958,0.487,17.478-5.769,17.478-5.769
		c6.591-3.959,7.917-18.478,7.917-18.478c15.812,2.643,36.932-10.544,36.932-10.544c10.543,5.274,14.495-2.643,14.495-2.643
		c-7.917-13.186,14.514-15.816,14.514-15.816c13.185-1.327,11.863-17.161,11.863-17.161c6.596,0,14.514-5.274,17.139-13.168
		c2.643-7.924,10.554-15.834,10.554-15.834c9.233-26.396,9.233,0,9.233,0c6.596-1.321,5.28-22.432,5.28-22.432
		c5.278,0,6.583-14.507,6.583-14.507c-6.583-7.905,5.279-11.864,5.279-11.864c-7.917,0-10.542-13.18-10.542-13.18
		c5.27,2.631-3.959-23.734,0-22.436c3.958,1.333,5.27-6.59,5.27-6.59l9.25-2.637c-6.596-3.947-15.834-26.377-15.834-26.377
		c11.863-5.269,22.436,14.519,35.604,10.566c13.191-3.97,3.959-43.533,3.959-43.533S557.897,282.864,535.472,252.522z
		 M376.871,395.622c0,0-1.48,10.376-8.404,12.352c0,0,0.5,7.417-3.471,7.911c0,0-0.481,10.395-4.43,11.382
		c0,0-7.429,11.87-16.828,4.947c0,0-3.939,17.805-17.293,8.895c0,0-12.87,6.917-22.271-1.972
		c-9.388-8.917-31.149-34.14-36.592-39.567c-5.439-5.447-27.691-31.633-32.145-41.54c-4.447-9.899-14.341-36.11,0.494-60.843
		c0,0,1.583,15.834,4.048,26.722c2.476,10.876,2.976,25.716,7.429,33.622c4.446,7.917,18.197,26.621,25.127,32.05
		c6.929,5.447,27.704,34.622,34.121,37.092c6.44,2.47,18.312,10.388,17.312,1.982c0,0,19.287,12.362,13.347-10.395
		c0,0,18.799,11.375,18.799-0.987c0,0,6.43,0.493,3.946-11.364c0,0,5.941-0.5,4.941-7.917c0,0,7.429-1.494,6.439-10.388
		c0,0,6.429,5.03,0-6.828c-6.439-11.87-6.923-6.917-9.888-18.293c-2.964-11.375-16.322-16.816-16.322-16.816
		s21.864-2.965,29.764,19.787C382.902,388.199,383.307,387.705,376.871,395.622z M530.936,285.763
		c4.376,13.983,3.072,36.973-1.315,38.777c-4.381,1.81-18.847-9.013-22.335-11.281c-3.512-2.25-11.404,2.268-11.404,2.268
		l10.959,23.436c0,0-3.5-2.69-3.5,1.804c0,4.519-4.834,7.215-4.834,7.215l-0.424-4.494c0,0-3.076-6.316-3.076-12.186
		c0-5.852-4.828-12.608-6.584-19.829c-1.75-7.215-12.691-12.167-14.883-15.329c-2.19-3.162-0.868-9.007-2.189-9.917
		c-1.321-0.893-5.697,1.352-7.459-2.25c-1.744-3.602,2.208-5.411,1.762-7.215c-0.423-1.798-7.446-4.06-10.066-4.5
		c-2.625-0.446-10.965-6.298-10.965-6.298c3.508-17.156,13.585-26.163,19.271-26.609c5.709-0.458,16.662,10.816,16.662,10.816
		c6.119-3.613,14.459-8.566,27.603-6.762c13.139,1.804,27.157,29.293,28.473,34.252
		C537.954,282.608,530.936,285.763,530.936,285.763z"/>
</g>
<g display="none">
	<path display="inline" d="M373.628,375.68c-1.471-22.097,13.263-116.383,0-151.743C360.37,188.583,310.278,53.05,226.308,67.783
		c-83.972,14.733-75.131,166.47-73.66,194.46c1.471,27.99,29.467,98.709,50.093,122.277c20.62,23.573,27.99,35.354,30.938,57.457
		c2.946,22.098,7.363,97.232,45.67,142.896c0,0,19.149,39.783,66.29,38.307c47.146-1.471,81.023-44.192,82.5-83.965
		C429.614,499.433,375.104,397.776,373.628,375.68z M412.392,518.118c-1.244-2.065-14.013-9.744-14.013-9.744
		c2.868-4.56,9.751-6.072,9.751-6.072L412.392,518.118z M406.529,491.183l0.613,5.93l-25.169,17.549l-7.387-0.161
		c-0.097-4.256-11.633-33.723-11.633-33.723s23.204,3.846,31.502,4.959C402.742,486.843,406.529,491.183,406.529,491.183z
		 M403.987,480.961c0,0-15.898-7.939-18.614-10.773l11.774-5.466C397.147,464.722,402.01,478.509,403.987,480.961z M394.135,458.924
		l-24.948,16.257l-8.513,0.18c0,0-6.334-22.508-27.65-28.162c-21.316-5.655-40.955-11.828-48.045-9.031
		c-7.084,2.798,1.179,21.65,3.112,25.942l-11.388-3.208L262.5,434.702c0,0,0.514-6.274,5.108-5.251
		c4.595,1.036,15.173,7.561,38.371,3.459c0,0,80.529,11.239,82.685,14.245C390.813,450.161,394.135,458.924,394.135,458.924z
		 M271.799,506.451l49.165,8.686l34.739,33.317c0,0-24.363-1.655-32.27-3.5C315.522,543.108,271.799,506.451,271.799,506.451z
		 M306.844,542.733c0,0-9.447,1.083-15.687-1.28l0.256-3.131L306.844,542.733z M237.023,203.43l2.381,25.562l-25.21,11.447
		l-5.024,1.547l-1.439-26.466L237.023,203.43z M206.509,195.721c0,0,2.436-17.876,2.305-20.281s2.875-4.56,2.875-4.56
		s19.204-7.149,21.989-8.013c2.798-0.863,2.715,2.833,2.715,2.833l-0.542,24.02c0,0-23.668,8.524-25.9,9.215
		C207.717,199.626,206.509,195.721,206.509,195.721z M216.378,118.674l11.983-6.757c0,0,6.231,2.357,7.269,5.709
		c1.035,3.352,1.513,14.822,1.513,14.822S226.314,129.062,216.378,118.674z M214.372,248.951
		c3.911-1.208,25.813-13.471,25.813-13.471l5.904,25.091c0,0,1.382,4.464-1.798,6.06c-3.179,1.596-21.691,10.977-21.691,10.977
		s-5.584,1.727-6.619-1.625c-1.036-3.352-4.869-21.74-4.869-21.74S210.461,250.159,214.372,248.951z M345.929,276.25
		c-3.006,2.149,2.102,16.066,2.304,18.042c0.202,1.977,7.816-2.411,7.816-2.411l-0.561-18.989l6.696-2.066l-1.214,21.168
		c0,0-8.989,5.22-12.078,5.768c-3.096,0.548-4.447-10.453-5.655-17.007c-1.209-6.56,5.696-6.649,5.696-6.649
		C348.876,276.56,348.935,274.102,345.929,276.25z M352.292,278.363l1.097,11.483l-3.347,1.036l-2.701-11.4L352.292,278.363z
		 M359.984,300.657l-47.718,25.728l-9.847-6.137l5.632-3.572c0,0,3.737,6.185,10.097,3
		C324.506,316.497,359.984,300.657,359.984,300.657z M336.637,333.344c-5.953,7.137-20.371-3.911-20.371-3.911
		c3.661-3.982,35.157-18.186,35.157-18.186s3.411,7.102,2.102,10.769c-1.314,3.667-26.687,8.643-26.687,8.643
		C328.553,336.243,336.637,333.344,336.637,333.344z M356.198,411.302l-29.46,19.483c0,0-9.495-5.02-8.299-9.055
		S333.298,410.414,356.198,411.302z M289.788,257.487c0,0,7.619,22.722,7.751,25.126c0.131,2.405-17.607,10.322-19.281,10.84
		c-1.673,0.518-15.78-21.43-15.78-21.43L289.788,257.487z M257.221,258.975l-5.649-20.275l-0.738-8.334
		c0,0,20.323-7.489,24.615-9.423c4.292-1.941,6.613,1.625,6.613,1.625s3.356,14.864,4.393,18.216
		c1.036,3.351-2.137,4.947-2.137,4.947L257.221,258.975z M300.557,296.365c-0.257,3.137-8.292,6.834-8.292,6.834
		s-4.514,3.226-5.93,0.607C284.919,301.187,300.557,296.365,300.557,296.365z M304.087,303.835l1.857,7.995l-7.691,4.816
		l-7.606-6.828C300.432,301.907,304.087,303.835,304.087,303.835z M336.303,301.234c-0.596,2.018-11.072,7.697-14.989,8.905
		c-3.904,1.202-4.773-1.589-4.773-1.589l-4.602-16.924c0.041-1.852,10.905-8.257,15.376-9.638c4.465-1.381,5.334,1.411,5.334,1.411
		S336.91,299.216,336.303,301.234z M307.456,277.107l-6.507-23.067c0,0,16.062-7.405,18.858-8.263
		c2.792-0.863,5.93-0.607,5.93-0.607l3.535,23.371C326.059,271.982,307.456,277.107,307.456,277.107z M300.384,238.313
		c-3.91,1.208-4.596-1.024-4.596-1.024l-4.314-21.912c0,0,16.966-6.459,20.876-7.661c3.905-1.208,4.209,1.756,4.209,1.756
		l5.084,20.454C321.642,229.919,304.295,237.11,300.384,238.313z M292.407,206.525c0,0-5.024,1.548-6.232-2.357
		c-1.201-3.911-4.048-17.103-4.048-17.103l24.525-5.732l6.625,17.525L292.407,206.525z M276.145,173.624l-8.09-18.299
		c0,0,0.429-2.578,2.659-3.268c2.232-0.691,20.063-4.352,20.063-4.352l9.382,18.507L276.145,173.624z M276.889,189.905
		c0,0,1.166,13.709,1.298,16.114c0.131,2.405-1.798,6.06-1.798,6.06s-19.067,9.554-22.979,10.763
		c-3.904,1.208-4.727-3.435-4.727-3.435s-1.179-21.657,1.612-22.521C253.089,196.03,276.889,189.905,276.889,189.905z
		 M240.523,113.667c0.773-1.464,4.59-6.923,4.59-6.923l12.412-1.387l-11.108,25.448
		C246.422,130.812,239.749,115.132,240.523,113.667z M224.331,291.132c0,0,24.14-12.947,25.984-12.906
		c1.851,0.042,9.596,25.174,9.596,25.174l-26.538,13.079C233.373,316.479,222.783,294.061,224.331,291.132z M264.483,314.223
		l-0.429,2.578c0,0-12.542,6.929-15.161,8.346s-8.036,3.703-8.036,3.703C239.648,324.944,264.483,314.223,264.483,314.223z
		 M265.602,321.825c0,0,2.023,8.554,0.519,9.625c-1.5,1.071-18.728,10.667-18.728,10.667l-3.911-6.739L265.602,321.825z
		 M265.227,338.457l-8.578,19.77c0,0-3.315-8.763-5.845-11.037L265.227,338.457z M255.239,428.999
		c2.964-0.31,9.982,16.495,9.982,16.495l-8.369,10.537l-3.478-1.375C253.369,454.644,252.274,429.297,255.239,428.999z
		 M292.182,471.419c0,0,20.606,37.068,22.632,37.663l-20.418-4.708L261.84,464.27L292.182,471.419z M315.206,466.758
		c3.008-2.148,16.848,7.036,20.426,12.662c3.57,5.625,19.363,42.955,19.363,42.955s-21.668-14.728-29.842-29.33
		C316.975,478.443,312.2,468.913,315.206,466.758z M370.687,416.617c3.959,4.894,14.799,24.181,14.799,24.181
		s-32.246-21.24-35.592-20.216l13.87-8.561C363.759,412.027,366.722,411.725,370.687,416.617z M362.442,257.088
		c0,0-18.078,6.804-20.876,7.667c-2.792,0.863-2.875-3.393-2.875-3.393l-3.971-20.793l24.399-8.144
		C361.139,240.98,362.442,257.088,362.442,257.088z M354.811,218.466c0,0-10.787,2.714-17.483,4.786
		c-6.702,2.066-7.18-1.458-7.18-1.458l-3.321-16.715c-0.131-2.405,22.162-7.447,22.162-7.447L354.811,218.466z M345.466,190.155
		c0,0-15.252,4.096-18.608,5.125c-3.346,1.03-4.555-2.875-4.555-2.875l-4.311-13.965l19.543-6.03L345.466,190.155z M317.147,142.015
		l11.966,18.942l-18.562,3.28l-8.436-19.418C302.116,144.818,312.552,140.985,317.147,142.015z M311.992,133.21
		c-2.751-0.988-38.878,10.774-42.962,11.417c-4.083,0.649-8.935,2.756-10.304,6.238c-1.369,3.482,6.81,26.032,6.81,26.032
		c-3.911,1.208-17.007,8.31-17.007,8.31c-0.398-15.167,8.905-42.503,8.905-42.503c12.507,2.869,51.682-12.888,51.682-12.888
		L311.992,133.21z M274.585,103.161l6.875-1.506l3.828,2.488c-5.03,1.547-13.364,2.286-13.364,2.286L274.585,103.161z
		 M269.65,108.965c0,0,4.042,1.196,6.793,2.185c2.756,0.988,13.578-3.578,13.578-3.578l6.32,6.613c0,0-18.815,6.417-22.899,7.066
		c-4.083,0.643-7.905-1.845-7.905-1.845L269.65,108.965z M271.638,127.305c7.565,0.726,28.098-8.054,28.098-8.054l5.977,5.495
		c0,0-33.89,11.066-39.265,11.5c-5.369,0.435-7.173-1.452-7.173-1.452l5.064-11.346
		C264.334,123.448,264.073,126.585,271.638,127.305z M264.739,89.076l-3.773,11.561l-12.763,0.268l8.971-12.554L264.739,89.076z
		 M232.421,87.421c0.863,2.792,4.947,10.096,1.382,12.417c-3.565,2.322-5.805-4.941-5.805-4.941l-2.923-9.489
		C225.075,85.409,231.564,84.629,232.421,87.421z M219.408,90.826c0,0,4.77,1.59,6.703,5.882c1.939,4.298,4.821,7.691,7.613,6.828
		c2.792-0.863,10.911-0.31,4.667-18.567l12.721,1.583c0,0-8.148,17.192-15.238,19.99s-15.299-2.006-15.299-2.006l-11.305-6.911
		L219.408,90.826z M204.723,102.696l17.019,7.59l-9.577,6.625c0,0-3.055-3.953-6.322-6.614
		C202.573,107.643,204.723,102.696,204.723,102.696z M197.818,121.948c3.911-1.208,8.638,2.232,8.638,2.232s-1.203,4.036-4.94,5.804
		c-3.732,1.768-14.133,3.75-14.133,3.75S193.912,123.162,197.818,121.948z M186.186,137.771c0,0,9.798,0.036,13.709-1.167
		c3.904-1.208,8.632-5.721,10.007-9.203c1.369-3.482,3.439,3.221,3.439,3.221l4.133,5.458c0,0-4.555,5.072-11.983,6.756
		c-7.435,1.679-23.758,4.274-23.758,4.274L186.186,137.771z M179.923,153.158c0,0,17.015-0.357,21.484-1.738
		s19.757-7.316,19.674-11.572l6.703,5.881c0,0-1.03,4.596-4.382,5.631c-3.346,1.03-43.259,8.453-44.42,10.65L179.923,153.158z
		 M177.185,168.076c0,0,4.68-2.667,10.228-2.542c5.542,0.125,30.633-5.78,33.246-7.203c2.619-1.417,11.465-8.429,11.465-8.429
		l4.691,5.28c0,0-25.688,7.929-35.526,9.739s-23.585,4.828-24.187,6.852L177.185,168.076z M174.275,182.422l24.572-7.578
		l-1.91,27.502l-28.008,12.311L174.275,182.422z M167.476,229.777l28.525-10.638l2.728,26.68l-31.609,16.483
		C166.035,252.856,167.476,229.777,167.476,229.777z M169.833,273.089l30.324-16.698c0,0,1.589,3.179,1.339,6.316
		c-0.256,3.137,5.471,19.716,5.471,19.716s-0.042,1.845-3.435,4.727c-3.394,2.881-26.282,17.894-26.282,17.894
		S169.923,277.34,169.833,273.089z M183.745,320.17c0,0,24.864-20.513,30.063-21.507l10.715,24.829l-27.656,21.376
		C196.871,344.868,184.609,322.962,183.745,320.17z M246.78,377.781c-1.721,2.363-3.911,1.208-6.274-0.506
		c-2.362-1.721-18.565-4.667-21.145-5.096c-2.577-0.429-16.77-18.68-16.77-18.68l22.973-18.71c0,0,3.695,0.083,4.215,1.756
		c0.518,1.679-11.854,9.161-13.912,10.405c-2.065,1.25-3.821,5.465-1.286,7.745c2.542,2.274,18.604-13.078,18.604-13.078
		l4.644,7.125c0,0-5.453,4.131-7.126,4.643c-1.679,0.518-6.917,3.357-5.923,8.56c0.994,5.197,11.418-6.578,14.043-8.006
		c2.619-1.417,4.857,5.839,6.065,9.75c1.209,3.911,6.107,7.905,6.107,7.905S248.499,375.418,246.78,377.781z M252.47,461.65
		l5.154,0.856l15.4,22.168c-1.853-0.048-9.489,10.87-9.489,10.87l-6.273-0.513L252.47,461.65z M257.316,501.136
		c0,0,5.715,0.686,7.523,2.577c1.81,1.893,24.426,23.656,24.426,23.656l-7.334,13.888l-14.181-2.356L257.316,501.136z
		 M271.448,546.93c3.269,2.655,90.232,7.02,90.232,7.02s18.357,13.912,20.853,18.031c2.495,4.118,1.686,7.429,1.686,7.429
		l-25.008,2.209c0,0-46.635-22.306-50.074-25.525c-3.44-3.215-10.103-3-10.103-3l21.322,13.603
		c-1.506,1.084-9.822,17.716-9.822,17.716l-17.398,1.089C288.61,580.771,271.448,546.93,271.448,546.93z M339.405,582.838
		c0,0-17.055,2.202-20.579,2.679l1.798-6.061L339.405,582.838z M346.894,611.107c-23.889,1.856-50.158-21.836-50.158-21.836
		c26.9,3.936,58.087-2.018,58.087-2.018l22.912,8.827C377.735,596.089,370.781,609.244,346.894,611.107z M382.074,592.303
		l-16.155-4.804c0,0,18.389-3.84,18.514-1.429C384.569,588.48,382.074,592.303,382.074,592.303z M408.94,556.496
		c-1.542,2.923-7.424,9.626-13.483,7.828c-6.06-1.805-8.815-10.738-8.815-10.738l18.091,1.143
		C404.731,554.734,410.493,553.567,408.94,556.496z M411.173,547.854l-5.633-4.382l6.911-3.352L411.173,547.854z M389.129,549.764
		c-2.231,0.69-4.424-0.471-5.286-3.262c-0.862-2.798-8.446-27.365-8.446-27.365L413,524.048c0,0,1.424,10.561-0.25,11.084
		C411.082,535.655,391.366,549.067,389.129,549.764z"/>
</g>
<g display="none">
	<path display="inline" d="M298.682,625.632c0,0,26.514-0.797,29.591-22.132c3.084-21.354-18.037-292.854-18.061-302.099
		c-0.049-9.25,2.398-34.854,12.471-48.39c10.049-13.537,16.978-19.251,16.287-36.313c-0.696-17.062-6.196-149.284-10.613-149.266
		s1.731,138.623-10.274,138.67c-11.988,0.03-2.362-137.92-9.93-137.896c-7.578,0.036,3,139.343-10.888,139.391h0.654
		c-13.888,0.036-4.257-139.343-11.828-139.319c-7.571,0.036,2.994,137.92-9.013,137.968c-11.995,0.036-6.769-138.611-11.186-138.605
		c-4.423,0.018-9.036,132.277-9.603,149.338c-0.57,17.067,6.394,22.734,16.536,36.199c10.162,13.483,12.764,39.063,12.787,48.301
		c0.036,9.245-19.258,280.895-16.019,302.212c3.226,21.335,29.732,21.953,29.732,21.953L298.682,625.632z"/>
</g>
<g display="none">
	<path display="inline" d="M572.832,244.421c-9.061-12.066-24.145-12.066-36.217-21.127c-12.065-9.048,0-30.168-18.114-30.168
		s-24.15-3.006-33.188-18.108c-9.054-15.108-21.126-21.126-39.241-21.126c-18.102,0-67.902-36.235-95.064-36.235
		c-27.163,0-22.64-15.084-52.819-15.084h-1.107c-30.191,0-25.662,15.084-52.818,15.084c-27.162,0-76.958,36.235-95.061,36.235
		c-18.107,0-30.181,6.018-39.235,21.126c-9.054,15.102-15.091,18.108-33.204,18.108c-18.104,0-6.036,21.126-18.104,30.168
		c-12.072,9.055-27.156,9.055-36.211,21.127c-9.054,12.066-15.09,81.476,9.055,84.476c24.14,3.036,45.266,18.132,60.361,21.144
		c15.091,3.006,45.259,3.006,66.397,6.03c21.114,3.006,42.24,21.121,66.386,12.072c24.145-9.066,51.313,0,51.313,0
		c6.042,39.247,3.019,63.386,3.019,63.386c-94.316,0-93.555,31.175-93.555,31.175c0,23.399,95.066,23.895,95.066,23.895
		c0,86.763-20.948,100.181-30.288,101.854h24.495c4.186-6.119,14.71-28.563,14.71-99.597h16.382
		c0,71.041,10.524,93.478,14.703,99.597h24.591c-9.334-1.673-30.274-15.091-30.274-101.854c0,0,94.965,1.513,94.965-22.877
		c0,0,0.852-32.191-93.465-32.191c0,0-3.03-24.146,3.006-63.386c0,0,27.169-9.066,51.325,0c24.139,9.048,45.266-9.066,66.38-12.072
		c21.127-3.024,51.308-3.024,66.403-6.03c15.085-3.012,36.211-18.109,60.354-21.145C587.94,325.891,581.881,256.487,572.832,244.421
		z M316.689,446.804l-0.923-8.231c0,0,77.125,5.487,77.125,21.954c0,16.466-74.356,16.472-90.155,16.472h-9.298
		c-15.799,0-90.145,0-90.145-16.472c0-16.473,77.138-21.954,77.138-21.954l-0.94,8.231c0,0-26.026-1.833-26.026,6.399
		c0,8.251,31.604,6.394,42.76,6.394c11.162,0,42.753,1.857,42.753-5.471S316.689,446.804,316.689,446.804z M306.26,453.638h-17.342
		c0-137.801-17.341-155.945-17.341-155.945s23.127-7,52.027,0C323.606,297.692,306.26,314.831,306.26,453.638z M517.417,332.939
		c-23.149,13.09-40.24,13.09-50.295,10.078c-10.065-3.03-43.282,2.994-58.373,12.06c-20.745,12.471-68.403-4.042-68.403-4.042
		c0-19.103,10.065-28.163,10.065-28.163s71.435-9.054,71.435-21.138c0-12.066-78.487-15.073-123.753-15.073
		c-45.271,0-126.754,8.048-126.754,21.139c0,13.066,84.5,14.066,84.5,14.066c5.03,7.03,7.043,31.175,7.043,31.175
		c-4.023-3.006-49.296,5.042-63.38,7.054c-14.084,2.012-25.145-9.054-43.253-15.09c-18.107-6.036-50.308-4.024-64.386-6.036
		c-14.084-2.006-31.187-7.042-41.247-18.103c-10.06-11.072-13.072-18.108,15.091-20.126c28.162-2.018,13.072-9.054,26.156-13.062
		c13.078-4.048,41.241-8.06,54.319-14.096c13.078-6.042,6.036-21.139,19.113-22.126c13.078-1.006,32.188-3.018,43.261-11.061
		c11.064-8.048,30.181-5.042,48.281-8.048c18.115-3.019,30.183-0.994,35.218,6.036c5.029,7.048,24.149,3.012,35.217,2.012
		c11.072-1,34.205,6.03,42.259,11.061c8.043,5.03,22.127,11.054,37.229,6.024c15.09-5.024,38.223-0.994,45.253-0.994
		c7.048,0,15.097,9.054,30.187,7.042c15.085-2.012,25.169-21.133,41.247-6.048c16.098,15.096,46.259,34.235,46.259,34.235
		C569.695,315.86,540.551,319.86,517.417,332.939z"/>
</g>
<g display="none">
	<path display="inline" d="M575.737,504.022c-29.954,5.529-170.131-91.014-221.604-126.373l-5.084,7.387
		c18.68,12.829,179.144,122.175,224.427,122.175c1.405,0,2.709-0.106,3.881-0.327L575.737,504.022z M326.923,403.837
		c34.996,51.896,130.521,193.188,124.896,223.325l2.857,1.637c7.32-39.211-107.234-210.567-120.324-229.979L326.923,403.837z
		 M177.75,69.938c0.798-3.488,1.357-5.667,1.357-5.667C178.448,65.152,178.013,67.17,177.75,69.938z M24.514,222.324
		c-3.251,0.137-5.613,0.524-6.597,1.262C17.918,223.586,20.49,223.044,24.514,222.324z M319.612,388.473
		c5.389-2.399,11.014-2.221,12.524,0.399c1.119,1.911-0.285,4.589-3.221,6.828c3.728-1.232,7.424-3.357,10.889-6.816
		c4.022-4.018,6.458-8.209,7.786-12.334c-2.161,3.203-4.899,5.114-7.024,4.566c-2.917-0.762-3.554-5.869-1.423-11.405
		c1.988-5.155,5.679-8.804,8.542-8.662c-2.845-9.489-10.286-16.239-15.001-15.501c-1.179-4.75-2.744-9.977-4.536-15.751
		c-2.833-9.144-8.113-14.894-14.751-17.257c-0.898-3.274-2.238-6.679-3.958-10.179l0.523,1c0,0,17.328,2.524,21.982-2.125
		c4.645-4.661,1.953-11.132,5.417-20.728c3.471-9.602,17.252-21.871,17.252-21.871l13.792-12.286c0,0-13.106,5.482-15.905,8.28
		c-2.791,2.798-18.181,22.805-18.181,22.805l-6.029,18.257c0,0-10.293,2.637-21.502,1.643l1.113,2.107
		c-0.898-1.613-1.811-3.232-2.911-4.881c-0.375-0.565-0.833-1.22-1.25-1.833c1.869-0.417,7.78-2.006,10.395-6.107
		c3.096-4.881-8.196-39.188-8.321-42.854c0,0,7.47-18.186,19.055-26.716c0,0-10.972,1.81-22.847,22.876
		c0,0,9.619,35.627,5.054,40.217c-3.071,3.065-7.792,2.845-10.603,2.363c-15.187-20.626-41.926-53.254-70.726-78.422
		c2.565-2.738,10.054-11.126,15.066-21.174c6.119-12.257-3.75-20.704-3.75-20.704l-56.355-32.294c0,0-4.536-43.563-2.971-59.969
		c-3.119,13.698-10.02,48.587-2.363,60.725c5.322,8.441,2.27,6.905,5.322,8.441c3.042,1.548,53.301,29.223,53.301,29.223
		l-17.947,27.627c-16.876-13.465-34.067-23.621-49.771-26.8c1.631-4.036,4.875-12.787,3.721-16.275
		c-1.209-3.667-8.727,9.667-11.739,15.251c-9.882-0.411-18.978,2.47-26.786,9.685l-0.071-0.072
		c-0.138,0.137-0.232,0.292-0.369,0.429c-0.113,0.113-0.238,0.179-0.346,0.292l0.054,0.054c-7.34,7.792-9.811,17.316-8.721,27.883
		c-2.828,1.137-13.608,5.679-15.489,9.441c-1.542,3.089,10.001,0.161,16.805-1.786c3.744,15.18,13.709,31.996,26.592,48.634
		l-28.961,18.858c0,0-27.342-50.634-28.864-53.7c-1.519-3.078,0,0-8.376-5.387c-11.77-7.56-45.052-2.661-59.23-0.125
		c16.966-0.708,58.457,5.5,58.457,5.5l31.913,56.766c0,0,8.363,9.971,20.566,3.875c12.196-6.12,22.127-16.055,22.127-16.055
		l-0.465-0.821c3.113,3.726,6.353,7.423,9.661,11.072c0.34-0.78,4.369-10.012,7.774-13.423l1.416,4.298l-9.149,9.167
		c22.775,25.115,49.248,47.961,67.054,61.683c0.529,2.679,1.06,8.024-2.273,11.364c-4.565,4.554-39.968-5.269-39.968-5.269
		c-21.014,11.87-22.841,22.889-22.841,22.889c8.529-11.608,26.645-19.037,26.645-19.037c3.655,0.125,37.725,11.614,42.604,8.507
		c4.439-2.834,5.965-9.572,6.209-10.787c0.667,0.464,1.362,0.964,1.97,1.375c1.197,0.815,2.363,1.446,3.542,2.149
		c0.792,10.751-1.583,20.365-1.583,20.365l-17.954,5.762c0,0-19.644,15.079-22.394,17.833c-2.738,2.738-8.072,15.729-8.072,15.729
		l12.019-13.566c0,0,12.03-13.59,21.483-16.924c9.436-3.334,15.835-0.566,20.395-5.131c3.917-3.923,2.597-17.126,2.132-20.859
		c2.644,1.214,5.237,2.244,7.744,2.977c2.44,6.435,8.091,11.56,16.931,14.364c5.536,1.756,10.536,3.28,15.12,4.464
		c-1.821,3.578,5.977,11.906,16.68,15.138C312.51,393.288,315.331,390.366,319.612,388.473z M331.684,374.138
		c0,0-0.446,6.959-7.27,7.649C317.606,382.49,330.774,376.531,331.684,374.138z M235.755,213.663l-9.257,9.269l-4.263-1.435
		C225.802,217.931,235.755,213.663,235.755,213.663z M221.564,202.197c-7.812,0.703-15.656,14.263-15.656,14.263
		C204.532,196.453,229.391,201.501,221.564,202.197z M181.042,218.556c-2.804-15.721,25.633-28.52,25.633-28.52L181.042,218.556z
		 M161.797,168.659l-38.115,39.824C126.015,192.905,161.797,168.659,161.797,168.659z M178.286,172.838
		c0,0-29.198,42.08-50.527,47.747L178.286,172.838z M155.368,268.506c-0.721,7.846-5.638-17.162,14.257-15.704
		C169.625,252.802,156.094,260.642,155.368,268.506z M143.32,253.475c0,0,12.847-28.538,28.467-25.656L143.32,253.475z
		 M133.414,236.307l60.486-54.879C193.895,181.434,146.921,232.771,133.414,236.307z M187.001,228.64
		c25.89-25.93,82.138,24.329,82.138,24.329s-56.261-44.491-78.923-21.805c-22.655,22.698,9.911,80.863,9.911,80.863
		S161.113,254.582,187.001,228.64z M296.986,353.405c-9.078,0.911,8.453-6.995,9.655-10.186
		C306.641,343.219,306.058,352.488,296.986,353.405z M282.996,324.218c1.357-0.946,2.679-1.702,3.702-1.905
		c0,0,9.203,7.881,1.382,11.441c-6.982,3.173-11.085-2.161-11.888-3.346c-7.812,7.739-14.521,16.983-16.442,27.104
		c0,0-7.106-0.006-56.218-43.938l3.012-9.125c0,0,1.78,5.846,15.257,4.589c13.479-1.256,12.146,0.083,15.896,14.686
		c3.75,14.608,12.709,20.93,16.055,17.573c1.673-1.672,3.911-11.459,9.173-20.388c0.084-0.5,0.19-1.173,0.341-2.197
		c1.439-10-51.748-63.659-29.044-50.765c22.716,12.899,38.287,40.074,38.287,40.074c-5.701,2.185-8.435,9.524-9.352,12.501
		c5.34-8.888,13.733-16.799,27.656-14.811c0,0,6.847-16.043-10.513-20.067c-17.364-4.018-11.645-3.637-10.835-13.626
		c0.811-9.988-1.291-9.411-5.673-11.131c-4.404-1.727,7.655-3.102,7.655-3.102s31.306,36.681,36.461,49.706
		C307.921,307.473,295.361,313.878,282.996,324.218z M343.458,370.471c0,0,4.806-1.625,4.024-6.578
		C346.716,358.935,344.983,369.364,343.458,370.471z M315.1,395.372c4.935,0.815,6.554-4.024,6.554-4.024
		C320.576,392.866,310.177,394.574,315.1,395.372z"/>
</g>
<g display="none">
	<path display="inline" d="M579.886,349.505c0-47.873-203.544-52.682-203.544-52.682l5.731,9.995c0,0,134.533-2.226,135.938,41.551
		c1.089,33.943-216.844,33.966-216.844,33.966h-7.065c0,0-217.449-0.012-216.836-33.966c0.784-43.301,134.337-42.479,134.997-42.473
		c-5.94,12.31-9.363,26.055-9.363,40.64c0,4.095,0.355,8.102,0.875,12.066c-27.365-2.881-50.23-7.673-50.23-15.698
		c0-19.978,51.813-19.978,51.813-19.978l2.221-5.935c0,0-94.501-0.065-94.501,26.585c0,26.633,181.597,26.633,181.597,26.633h5.911
		c0,0,181.597,0,181.597-26.633c0-26.651-96.222-26.657-96.222-26.657l1.471,5.988c0,0,54.284,0.018,54.284,19.996
		c0,8.221-23.984,13.048-52.22,15.906c0.536-4.036,0.905-8.107,0.905-12.274c0-51.777-41.979-93.757-93.757-93.757
		c-34.448,0-64.476,18.638-80.769,46.325l1.69-3.214c0,0-202.182,3.143-202.182,53.605c0,29.484,117.712,39.759,199.865,43.354
		c16.126,28.3,46.485,47.438,81.394,47.438c34.865,0,65.207-19.091,81.345-47.355C460.229,389.437,579.886,379.216,579.886,349.505z
		"/>
</g>
<g display="none">
	<path display="inline" d="M577.225,348.845l-135.033-50.641c0,0-32.204,27.621-24.537,69.041l135.01,49.099
		C552.664,416.344,583.345,402.533,577.225,348.845z M222.808,302.812l23.799,9.346l0.744,4.458
		c1.536,56.76,32.223,75.184,69.046,75.184c30.907,0,45.552-24.793,49.48-32.788l28.764,11.304c0,0,1.542-69.046,39.89-89
		l-177.977-70.57C256.554,210.746,213.592,239.902,222.808,302.812z M241.226,193.875L58.635,126.371
		c0,0-50.629,42.961-39.89,111.996l176.441,65.975C195.187,304.342,184.453,226.104,241.226,193.875z M274.972,407.141
		l-98.209,116.604h29.155l90.524-75.178v118.139h38.354v-118.14l90.519,75.178h29.157L356.287,407.14L274.972,407.141
		L274.972,407.141z"/>
</g>
<g display="none">
	<path display="inline" d="M327.857,399.408c1.856-5.274,252.035,30.454,252.035,30.454s-213.324-44.896-211.628-51.408
		c1.702-6.506,145.777,26.21,145.777,26.21c-33.162-17.471-217.818-50.623-215.033-56.51c2.774-5.887,98.419,17.316,98.419,17.316
		s-270.204-93.536-284.253-98.477c-14.049-4.947-82.362-15.733-96.196,51.712c-13.781,67.177,66.568,80.898,66.568,80.898
		l363.087,26.146C446.627,425.749,326.006,404.67,327.857,399.408z M241.863,366.173c3.089-9.459,115.573,24.216,115.573,24.216
		S238.779,375.626,241.863,366.173z M296.098,391.062c0,0-151.339-10.406-149.79-16.144
		C147.85,369.197,296.098,391.062,296.098,391.062z M158.213,353.542c-0.778-4.179,54.838,9.709,54.838,9.709
		S158.988,357.72,158.213,353.542z M311.403,364.727c0,0-152.576-20.323-149.022-32.097
		C165.928,320.854,311.403,364.727,311.403,364.727z M153.219,307.854c0.923-6.667,144.7,33.64,144.7,33.64
		S152.29,314.515,153.219,307.854z M223.855,313.057c0.923-4.644,53.915,14.364,53.915,14.364S222.926,317.711,223.855,313.057z
		 M216.569,309.199c0,0-83.339-16.198-82.112-22.395C135.688,280.602,216.569,309.199,216.569,309.199z M128.348,392.288
		c2.013-8.06,201.068,17.495,201.068,17.495S126.342,400.337,128.348,392.288z"/>
</g>
<g display="none">
	<path display="inline" d="M351.21,438.654c-0.273,0.161-17.239,10.138-31.17,11.882c9.084-0.429,26.656-1.583,29.646-4.119
		C350.185,443.78,350.703,441.179,351.21,438.654z M348.429,483.968c0.064,0.065,0.112,0.118,0.167,0.166
		c-0.458-1.345-0.863-2.661-1.19-3.964c-0.048,0.102-0.09,0.196-0.131,0.297C347.512,482.128,347.882,483.414,348.429,483.968z
		 M320.523,498.873c5.895,0.744,12.126,0.369,17.537-0.352c2.772-4.041,5.208-8.744,6.731-14.097
		C339.083,491.533,328.303,496.23,320.523,498.873z M346.257,468.442c0,0-7.28,1.548-16.286,2.375
		c-13.025,6.44-26.551,19.972-26.551,19.972c2.203,2.679,5.085,4.572,8.341,5.888C335.595,492.492,346.257,468.442,346.257,468.442z
		 M346.804,464.406c0.352-3.148,0.846-6.536,1.435-10.024l-0.738,3.506c0,0-2.243,1.447-5.929,3.222
		c3.417-0.708,5.613-1.055,5.613-1.055l-0.488,4.437C346.733,464.466,346.762,464.438,346.804,464.406z M351.846,513.148
		c-2.648,0.689-5.228,1.131-7.715,1.387c-2.619,2.798-5.555,5.286-8.389,7.405c0.436,0.167,0.875,0.345,1.334,0.518
		C345.216,518.589,351.846,513.148,351.846,513.148z M346.341,475.181c0.022-0.272,0.028-0.554,0.041-0.82
		c-0.054-0.667-0.096-1.339-0.096-1.988c0-0.798,0.029-1.648,0.071-2.523c-0.022-0.465-0.06-0.935-0.102-1.404
		C345.608,470.413,345.876,472.99,346.341,475.181z M336.001,510.088c0.772,0.054,1.54,0.103,2.31,0.138
		c4.929-4.305,8.875-8.257,8.875-8.257c-1.982,0.952-3.911,1.722-5.786,2.347C339.929,506.309,338.137,508.267,336.001,510.088z
		 M320.106,467.531c-1.096,0.112-2.185,0.179-3.304,0.221c0.833,0.018,1.714,0.042,2.654,0.054
		C319.677,467.71,319.892,467.621,320.106,467.531z M335.16,559.24c-0.852-2.541-1.631-4.811-1.631-4.811
		c3.655,1.113,10.138-0.862,15.614-3.06c-8.578-0.786-17.37-5.232-20.508-6.953c3.59,7.655,8.523,18.585,10.148,28.865
		c-0.153-1.214-0.285-2.09-0.285-2.09c4.154,1.529,12.145-0.785,16.52-2.291c-7.649,1.881-17.489-1.625-17.763-2.988
		c-0.155-0.804-1.145-3.828-2.061-6.572c-0.036-0.036-0.072-0.071-0.119-0.106C335.077,559.246,335.118,559.24,335.16,559.24z
		 M335.16,559.24c0.013,0.036,0.023,0.078,0.036,0.112c12.828,12.681,29.365,3.68,30.948,2.77c0.346-5.334,0.786-12.146,1-18.813
		C364.889,557.021,336.708,559.134,335.16,559.24z M338.804,586.254c12.815,0,24.353,5.353,27.139,7.739
		c0.154-6.09,0.047-11.799-0.071-16.245C361.68,584.521,338.804,586.254,338.804,586.254z M339.268,574.61
		c5.131,6.834,23.579,3.096,26.585,2.423c-0.071-2.69-0.137-4.869-0.137-6.305c0-1.625,0.173-4.564,0.411-8.244
		C361.573,575.968,339.268,574.61,339.268,574.61z M367.156,542.954c0.013-0.488,0.03-0.982,0.042-1.465
		c-0.268,0.59-0.548,1.102-0.786,1.5C366.794,542.972,367.05,542.96,367.156,542.954z M366.931,531.882
		c0.112,0.179,0.202,0.362,0.297,0.547c-0.012-0.577-0.035-1.143-0.06-1.695C367.109,531.107,367.031,531.482,366.931,531.882z
		 M324.219,512.874c-5.494-1.488-8.822-3.286-8.84-3.298l5.41,10.155c0,0,0.055,0.435,0.174,1.196
		c0.493,0.112,1.076,0.096,1.743-0.078c-1.273-1.375-2.439-2.893-3.452-4.602C319.255,516.256,321.279,515.101,324.219,512.874z
		 M332.488,527.923c-5.53,1.519-9.519,1.994-9.519,1.994c6.654,10.453,24.729,12.715,35.608,13.09
		c6.489-4.528,8.341-11.125,8.341-11.125S347.632,535.072,332.488,527.923z M348.739,485.212c0,0-0.304,5.464-3.231,12.036
		c4.404-0.917,7.273-1.798,7.273-1.798c0.256,5.423-1.923,10.489-5.202,14.978c6.411-0.042,11.524-0.381,13.078-0.506
		c-3.888-7.822-8.674-16.454-11.626-24.562C348.869,485.283,348.739,485.212,348.739,485.212z M237.404,294.448
		c-0.065,1.161-0.196,2.375-0.381,3.631C237.237,296.865,237.35,295.65,237.404,294.448z M211.777,552.341
		c-0.535,2.751-1.125,5.572-1.631,8.299c1.237-0.023,6.023-0.154,11.59-1.144C217.028,556.817,212.444,552.919,211.777,552.341z
		 M233.106,316.176c12.489,1.03,23.912,0.411,34.146-1.167c-15.757-6-28.871-12.161-30.913-13.132
		c-1.064,5.144-2.679,10.751-3.862,16.073C232.808,316.706,233.106,316.176,233.106,316.176z M209.372,565.349
		c0.208-0.423,0.452-0.513,0.452-0.513c0.452,0.203,1.042,0.321,1.714,0.381c-0.779-1.119-1.321-2.327-1.577-3.613
		C209.735,562.884,209.532,564.134,209.372,565.349z M210.08,583.933c0.637,6.024,1.738,13.175,4.065,19.479
		c5.346-3.029,11.763-5.131,17.478-6.554C222.968,594.612,213.682,590.695,210.08,583.933z M302.384,358.75
		c-12.292,1.143-27.488,1.363-46.146-0.089c5.637,4.286,11.852,8.179,18.335,11.703c9.417-2.244,16.501-3.197,16.501-3.197
		c1.321-0.822,3.911-1.768,7.31-2.774C299.747,362.519,301.081,360.631,302.384,358.75z M288.377,377.162
		c1.68-1.982,3.316-3.994,4.905-6.03c-1.119,0.435-1.744,0.691-1.744,0.691c-3.31,0.345-6.631,1.101-9.929,2.167
		C283.86,375.091,286.11,376.15,288.377,377.162z M230.641,345.255l0.25-7.382c-0.035-0.089-0.047-0.167-0.071-0.25
		C230.779,340.011,230.713,342.588,230.641,345.255z M324.839,516.559c0,0,1.125,0.709,3.078,1.75
		c1.659-1.064,3.439-2.362,5.227-3.778c-1.042-0.107-2.048-0.232-3.024-0.388C328.506,515.041,326.756,515.851,324.839,516.559z
		 M229.725,377.662c0,2.453-1.244,12.072-1.847,23.329c0.292-1.857,0.571-3.103,0.571-3.103
		c3.103-12.81,22.115-20.875,38.378-25.514c-6.744-4.935-12.739-9.834-17.811-14.352c-5.905-0.571-12.114-1.298-18.681-2.208
		C230.034,365.953,229.725,375.204,229.725,377.662z M312.956,505.052l2.395,4.501c-0.138-0.304-1.572-3.286-2.155-4.167
		C313.135,505.29,313.052,505.171,312.956,505.052z M366.443,524.321c0,0,0.029,0.07,0.089,0.208
		c-0.91-4.096-3.083-8.965-5.667-14.197c-4.381,6.566-11.334,11.019-18.107,13.995C350.167,526.411,358.8,527.352,366.443,524.321z
		 M328.529,509.309c1.013-0.904,2.062-1.917,3.113-3.006c-8.429,0.654-15.161-1.648-19.787-3.923
		C314.475,506.142,321.029,508.213,328.529,509.309z M337.678,590.225c0.869-1.798,1.44-6.917,1.44-6.917
		c4.035,0.93,14.591-2.481,14.591-2.481c-7.139,0.619-14.28-0.619-14.28-0.619c0-0.791-0.097-1.994-0.222-3.262
		c0.186,2.471,0.144,4.869-0.201,7.148C338.697,586.021,338.238,588.088,337.678,590.225z M354.794,418.588
		c0.125-1.429,0.137-2.56,0-3.28V418.588z M226.081,471.169l-0.679-6.106C225.337,466.925,225.516,468.931,226.081,471.169z
		 M249.149,483.753c-14.001-4.03-23.073-12.584-23.073-12.584c0.394,1.607,0.478,3.071,0.333,4.452
		c1.215,4.834,5.078,9.466,9.645,13.46c10.311-0.286,21.264-1.542,21.264-1.542C254.673,486.854,251.905,485.497,249.149,483.753z
		 M223.956,589.892l22.299,4.321c0.222-0.022,0.357-0.041,0.357-0.041l0.06,0.125l0.799,0.148c-1.411-3.232-3.013-6.298-4.578-9.274
		C241.011,586.409,233.457,590.909,223.956,589.892z M340.215,241.67c0.185-6,1.721-11.632,3.94-16.745
		c-12.27-4.185-27.604-9.792-43.033-16.394c-3.702,1.679-7.423,3.102-11.12,4.292L340.215,241.67z M312.266,144.509L312.266,144.509
		c-0.006,0-0.006,0.006-0.012,0.006C312.26,144.509,312.26,144.509,312.266,144.509z M312.255,144.509
		c-0.591,0.655-0.821,1.214-0.811,1.685C311.719,145.628,311.987,145.074,312.255,144.509z M289.913,148.229
		c14.549,0,22.306-3.703,22.348-3.721c0.602-1.256,1.185-2.494,1.731-3.714c-0.042,0.012-0.064,0.018-0.106,0.03
		c-0.471,1.042-0.847,1.821-0.847,1.821C307.921,144.813,289.913,148.229,289.913,148.229z M318.939,123.239
		c-7.131,9.364-35.39,11.042-50.759,11.245c24.002,7.429,47.497,1.798,47.497,1.798c-0.274,1.083-1.119,3.06-1.786,4.518
		c0.042-0.006,0.071-0.012,0.102-0.024c3.077-6.881,5.244-13.197,6.655-18.978C319.892,122.924,318.939,123.239,318.939,123.239z
		 M314.784,148.503c-0.852-0.482-1.798-0.905-2.846-1.256C312.635,147.92,313.885,148.307,314.784,148.503z M268.411,138.181
		c0.369,3.196,0.863,6.488,1.482,9.894c0,0-0.113,0.047-0.291,0.131c15.013,0.554,39.859-6.155,44.282-7.388
		c0-0.006,0.006-0.012,0.006-0.023C297.146,145.241,279.293,141.526,268.411,138.181z M321.427,156.766
		c-12.931,6.054-27.317,6.982-39.33,6.144c4.244,2.018,8.311,4.03,12.18,6.018C310.492,163.129,321.427,156.766,321.427,156.766z
		 M273.472,187.547c15.221,3.096,28.71,2.637,39.961,0.625c1.327-1.232,2.577-2.471,3.75-3.697
		c-5.209-2.887-10.423-5.578-15.495-8.042c-13.334,4.756-26.854,5.953-35.883,6.107
		C268.096,184.143,270.644,185.815,273.472,187.547z M305.07,195.048c-7.263-0.042-14.508-0.696-21.49-1.738
		c4.113,2.19,8.661,4.453,13.697,6.75C300.051,198.483,302.653,196.798,305.07,195.048z M319.492,152.444
		c-0.964-1.179-2.256-2.423-3.945-3.488c-5.167,4.352-32.615,10.912-32.615,10.912C293.188,162.284,318.089,152.974,319.492,152.444
		z M353.817,220.49c3.619,1.048,7.353,2.096,11.221,3.131c-2.06-3.167-4.512-6.256-7.279-9.263
		C356.4,216.317,355.067,218.401,353.817,220.49z M354.585,208.43c5.971-7.108,11.536-11.305,11.536-11.305
		c0.273,0.208,0.523,0.458,0.757,0.727c-2.744-6.227-6.847-12.079-11.168-17.15c-7,5.149-14.764,8.673-22.925,10.936
		C341.917,197.894,349.078,203.59,354.585,208.43z M232.951,217.609c-5.328-2.75-10.65-2.197-15.508-0.042
		c4.596,5.745,9.722,11.096,13.864,12.691c0.721,0.28,1.404,0.44,2.064,0.482c13.354-4.857,108.063,23.073,108.063,23.073
		s-29.192-20.555-62.684-37.985C253.964,221.151,232.951,217.609,232.951,217.609z M322.594,109.828
		c-0.388,1.524-0.958,2.988-1.811,4.34c0.446,1.405,0.667,2.589,0.738,3.601C322.058,114.995,322.409,112.346,322.594,109.828z
		 M370.573,246.159c0.036-0.607,0.071-1.226,0.113-1.869c-19.549,3.405-27.282,2.87-30.067,1.423l0.815,8.102
		C341.429,253.814,364.651,252.79,370.573,246.159z M358.68,280.316c17.376,3.107,19.864-9.31,19.864-9.31l3.035,4.215
		c-2.779-4.37-5.327-8.673-7.279-12.364c0.32,0.852,0.518,1.322,0.518,1.322C375.437,274.107,358.68,280.316,358.68,280.316z
		 M227.689,418.07c0.106-2.215,0.292-3.639,0.292-3.639c-0.167-0.583-0.304-1.189-0.411-1.833
		C227.575,414.427,227.612,416.267,227.689,418.07z M305.783,90.981c-12.007,3.649-26.781,10.857-37.479,16.495
		c-0.68,5.697-0.988,11.959-0.77,18.793c21.627,1.732,53.248-12.102,53.248-12.102S317.089,100.72,305.783,90.981z M320.076,89.856
		c0.119,0.298,0.237,0.589,0.352,0.893C320.297,90.416,320.177,90.118,320.076,89.856z M319.576,88.671c0,0,0.196,0.429,0.5,1.185
		c-0.548-1.458-1.144-2.851-1.821-4.161L319.576,88.671z M274.853,81.272c-1.583,3.929-3.125,8.583-4.399,13.965
		c7.979-3.911,17.198-7.667,25.157-10.691C289.919,82.064,283.073,80.695,274.853,81.272z M237.296,169.493
		c0,0,0.232-0.214,0.633-0.542c-3.478,2.19-7.191,4.643-10.883,7.346c6.417,1.351,12.93,1.911,19.389,1.875
		C242.922,175.327,239.826,172.428,237.296,169.493z M252.798,106.887c1.856-2.328,5.286-4.834,9.597-7.358
		c1.089-5.661,2.72-11.483,5.083-17.251c-4.18,0.827-8.655,2.113-13.472,3.97c-3.935,5.245-2.904,14.037-0.75,23.883
		L252.798,106.887z M359.067,212.514c8.239,7.798,11.399,12.548,11.399,12.548s0.971,2.458,0.685,4.947
		c-0.071,2.804-1.304,3.119-1.304,3.119s-7.811-2.244-19.733-6.203c-3.035,5.554-5.102,9.923-5.102,9.923
		c11.799,7.447,26.08,0.619,26.08,0.619c-0.286,2.095-0.382,4.173-0.369,6.191c0.702-10.709,2.047-26.371-1.679-39.705
		C366.175,204.114,362.586,207.733,359.067,212.514z M275.478,67.36c0,0,0.048-0.03,0.125-0.077
		c-9.722,3.565-16.299,11.905-21.598,18.965c0,0,6.19-4.953,15.508-8.56C271.203,74.188,273.174,70.73,275.478,67.36z
		 M349.442,173.928c-6.905-6.875-12.87-11.186-12.87-11.186l-0.494-0.208c3.597,2.405,7.071,6.644,7.071,6.644
		c-2.452,4.589-5.161,8.75-8.06,12.548C342.887,178.404,347.858,175.059,349.442,173.928z M308.796,79.754
		c1.834-0.637,3.315-1.137,4.334-1.488c-7.591-8.495-18.044-12.162-25.128-12.667c-1.57-0.113-3.083-0.113-4.536-0.006
		c-0.451,0.565-2.97,3.774-5.881,9.607C286.913,73.081,297.986,73.236,308.796,79.754z M322.54,344.523
		c10.489-5.482,15.514-12.09,17.912-17.317c-3.519,1.03-6.946,1.965-10.286,2.81C327.898,334.969,325.339,339.809,322.54,344.523z
		 M345.466,325.646c-1-3.107-1.978-5.786-2.822-7.477l2.298,7.477C345.174,325.646,345.358,325.646,345.466,325.646z
		 M332.416,324.784c3.613,0.411,6.561,0.625,8.751,0.738c1.638-4.328,1.481-7.352,1.481-7.352
		c-1.589-3.167-2.482-11.376-2.988-19.644C338.376,307.532,335.851,316.313,332.416,324.784z M314.219,357.238
		c-0.898,1.274-1.827,2.53-2.763,3.78c18.001-4.197,40.854-8.292,40.854-8.292v9.31c-13.722-3.262-32.109,0.613-45.045,4.405
		c-3.822,4.774-7.812,9.357-11.87,13.739c0.939,0.387,1.887,0.768,2.834,1.143c6.446-6.078,25.257-19.936,54.551-9.745l0.228,10.019
		c0,0-30.538-9.572-49.741,1.672c8.929,3.357,17.519,6.09,24.989,8.227c8.273,0.172,17.126,1.78,25.216,6.161
		c0.036,0.869,0.203,2.715,0.411,4.727c-0.853-18.995-1.524-51.438-1.524-51.438s-3.571-14.983-6.875-25.264
		c-0.161,0.048-0.321,0.095-0.481,0.143l2.506,8.12c-7.43,5.62-14.764,9.959-21.841,13.287c7.501-0.917,15.566-2.089,24.264-3.578
		C349.929,343.666,341.465,352.762,314.219,357.238z M267.698,158.885c19.233-0.857,40.628-10.578,43.467-11.899
		c-0.012-0.006-0.028-0.012-0.047-0.018c-12.805,4.846-32.365,2.839-41.86,1.429c-1.673,0.929-6.042,3.994-5.667,10.322
		C264.983,158.766,266.388,158.825,267.698,158.885z M212.967,211.656c10.316-3.333,22.157-1.494,22.157-1.494
		c12.139,1.732,22.924,1.566,32.49,0.089c-20.306-9.792-41.164-17.543-57.367-18.305c-3.257,4.161-5.856,8.679-7.376,13.584
		c0.607-1.78,1.417-3.756,2.453-5.304C205.324,200.227,208.527,205.501,212.967,211.656z M254.417,115.149
		c0.971,4.066,2.029,8.227,2.904,12.34c0.036-1.994,0.149-3.631,0.149-3.631c0.98,0.464,2.034,0.852,3.125,1.179
		c-0.167-4.149-0.144-8.703,0.208-13.513C257.577,113.316,255.298,114.632,254.417,115.149z M318.867,182.648
		c9.353-10.358,13.639-19.876,14.264-21.335l-4.464-1.863c-6.681,7.09-14.765,12.042-23.104,15.489
		C310.32,177.559,314.737,180.136,318.867,182.648z M263.292,147.979c0.125-0.179,0.25-0.352,0.388-0.524
		c0,0-1.231-4.447-2.16-11.638c-1.322-0.506-2.292-0.911-2.853-1.149c0.071,0.458,0.131,0.911,0.196,1.363
		C259.453,140.449,261.054,144.432,263.292,147.979z M290.157,203.662c-10.084-4.643-19.9-9.673-28.585-14.971
		c-17.948-4.78-31.467-10.745-34.735-12.239c-0.018,0.018-0.041,0.03-0.06,0.047l53.641,30.818
		C283.86,206.257,287.098,205.031,290.157,203.662z M258.977,177.416c10.834-1.232,21.186-3.822,30.233-6.763
		c-12.061-5.333-22.097-9.066-27.086-10.84c-4.089-0.988-6.512-1.81-6.512-1.81c1.012,0.226,2.06,0.393,3.107,0.536
		c0.095-0.667,0.856-5.435,4.435-10.388l-0.655,0.018c0,0-6.07,2.429-7.286,8.5c-0.355,1.786-4.72,4.524-10.814,8.274
		c0.744-0.28,1.487-0.494,2.208-0.572C246.613,164.373,249.226,169.499,258.977,177.416z M347.376,218.591
		c1.862-3.19,3.929-6.102,5.988-8.673c-6.648-6.333-14.603-12.245-23.044-17.632c-2.035,0.494-4.09,0.929-6.161,1.286
		c-5.006,4.5-10.334,8.221-15.799,11.292C319.362,209.389,332.268,214.02,347.376,218.591z M200.812,337.868
		c-10.947-5.453-18.132-2.726-20.066-1.774c-0.953,8.161-1.644,15.691-1.959,22.228C180.102,356.5,189.62,343.636,200.812,337.868z
		 M249.149,598.66c-0.131-0.369-0.273-0.728-0.405-1.096c0.132,0.773,0.346,1.564,0.655,2.189l0.387,0.786
		C249.595,599.928,249.381,599.303,249.149,598.66z M218.67,611.863c-1.272-1.696-2.352-3.577-3.148-5.131
		c3.102,6.583,7.876,11.685,15.418,12.571c19.399,2.279,23.781-2.946,19.204-17.704C231.617,599.851,218.67,611.863,218.67,611.863z
		 M239.451,578.444c-0.106-0.214-0.208-0.436-0.31-0.655c-2.591-0.458-15.104-2.91-22.938-8.186
		c-4.298,0.744-6.852,0.357-6.852,0.357c-0.154-0.78-0.237-1.44-0.285-2.007c-0.161,1.905-0.186,3.661,0.006,5.215
		c0.292,2.315,0.518,6.024,0.964,10.34C212.455,584.063,236.106,589.177,239.451,578.444z M226.575,517.5
		c8.917,5.583,19.646,7.869,21.229,8.179c0.096-0.702,0.131-1.09,0.131-1.09s8.023-8.036,7.357-21.857
		C246.107,514.106,234.6,517.047,226.575,517.5z M229.379,451.68c0,7.875,8.328,15.959,17.156,22.316
		c10.941,3.715,20.466,3.394,22.549,3.269c0.988-3.398,1.69-7.071,1.917-10.959l6.072-15.786c0,0,0.054-0.071,0.125-0.19
		C260.298,464.853,229.379,451.68,229.379,451.68z M250.785,419.767c-8.203,6.097-14.757,10.424-18.315,12.703
		c11.565,12.87,42.045,16.947,45.073,17.316c1.59-2.565,6.632-11.322,5.603-17.479c-0.714-4.262,1.071-8.096,2.667-10.548
		C274.526,417.82,261.548,418.195,250.785,419.767z M267.477,481.974l-1.458,3.41C266.519,484.295,267.013,483.151,267.477,481.974z
		 M297.407,419.778l-0.273-1.388c0,0,7.822-12.702,57.172-7.982c0-0.006,0-0.012,0-0.019c-9.973-1.268-19.758-3.679-29.199-6.894
		c-9-0.988-19.353-1.137-30.073,0.689c0,0-8.065-2.814-19.251-4.798c-4.685,4.191-9.28,8.062-13.638,11.578
		c15.424,2.251,30.097,6.251,30.097,6.251c-0.726,0.125-1.387,0.353-1.976,0.619C292.402,417.058,295.545,416.629,297.407,419.778z
		 M303.653,481.717c0.946-4.238,4.607-7.779,9.446-10.679c-5.786-0.548-10.94-1.94-14.024-4.77c0,0,36.01-0.618,49.36-15.209
		c0,0-37.567,8.375-48.433-1.243c0,0,39.099-2.555,53.511-22.835c0.125-0.68,0.244-1.347,0.356-1.982
		c-6.721-0.143-48.241-0.905-54.938,2.446c0,15.787-3.645,20.645,0,21.858c3.644,1.208-8.501,10.93,0,16.995l4.852,14.572
		C303.783,480.878,303.724,481.188,303.653,481.717z M182.4,386.585c2.988,0.369,15.085,1.458,16.722-5.066
		c0,0-14.864,1.857-19.853-5.566c0.185,1.095,0.403,2.078,0.673,2.923C180.703,381.317,181.531,383.901,182.4,386.585z
		 M216.497,279.078c-2.106,0.523-4.238,0.762-6.34,0.797c0.774,0.399,1.56,0.839,2.34,1.286
		C214.92,279.982,216.497,279.078,216.497,279.078z M206.598,273.149c9.863-1.828,19.52-0.28,19.52-0.28
		c-0.953-5.596-3.465-9.667-6.667-12.632c-11.472,8.602-25.836,8.394-28.104,8.298l-0.071,0.53
		C192.776,271.726,199.466,272.792,206.598,273.149z M210.288,460.995c-0.554-2.756-0.23-15.524,0.119-25.483
		c2.691-3.584,3.566-9.632,1.102-12.912c-3.637-4.856-2.564-21.186-2.564-21.186s4.994,16.322,9.852,13.898
		c4.853-2.429-7.292-32.793-7.292-32.793s-6.071-8.5-4.852-21.858c0.286-3.149,1.452-9.358,3.071-16.995
		c-0.19,0.023-28.49,3.476-30.906,22.769c0.035,1.018,0.077,2.03,0.119,2.977c1.833,1.81,11.894,10.638,27.014,2.798
		c0,0-3.102,26.08-19.865,24.21c0,0,9.937,20.49,22.349,17.388c0,0-0.619,6.822,2.487,9.312c0,0-12.418-2.482-20.489-12.418
		l-7.18-20.007c-0.208,13.311-1.221,70.511-3.685,89.393c-2.792,21.425,2.792,49.367,1.856,55.879
		c-0.929,6.524,7.452,1.863,7.452,1.863s-3.727-46.563-0.929-67.058c1.602-11.733,2.894-37.504,3.709-57.393
		c5.071,13.453,10.126,24.317,13.489,24.938c-2.322,9.119-4.555,17.674-3.228,19.876
		C204.699,462.853,211.217,465.65,210.288,460.995z M217.872,252.058c1.5-1.315,2.507-2.315,2.846-2.655
		c-6.929-1.947-14.148-0.286-14.148-0.286C211.199,249.236,214.914,250.391,217.872,252.058z M191.216,268.529
		c0.049,0,0.077,0,0.132,0.006l0.429-3.143C191.597,266.434,191.406,267.482,191.216,268.529z M178.638,368.858
		c0.012-0.839,0.076-1.637,0.172-2.423c-0.065-1.685-0.118-3.411-0.148-5.012C178.578,364.114,178.567,366.602,178.638,368.858z
		 M213.003,255.957c-8.584-4.054-18.079-3.578-18.079-3.578c5.584-7.292,14.823-8.232,22.384-7.465
		c-7.661-5.958-20.733-1.53-21.566-1.238c-1.048,5.697-2.161,11.769-3.305,18.072C199.038,264.41,207.14,260.195,213.003,255.957z
		 M179.239,375.805c-0.035-0.607-0.172-3.203-0.315-6.394c-0.172-0.167-0.262-0.262-0.284-0.292
		C178.727,371.668,178.929,373.906,179.239,375.805z M226.32,476.39c-0.773,4.577-4.042,8.28-6.965,12.911
		c0.673-0.791,1.179-1.304,1.179-1.304c2.221,0.738,5.84,1.054,9.965,1.119c-3.387-4.894-4.59-9.311-4.375-9.965
		C226.278,478.676,226.325,477.609,226.32,476.39z M229.725,247.742c1.839,3.982,4.397,7.554,7.512,10.763
		c28.265-4.393,101.265,18.4,101.265,18.4c-3.536,3.887-7.77,7.023-12.473,9.542c8.007,0.447,13.091,0.393,13.091,0.393l0.09,1.53
		c-0.202-6.53-0.202-11.495-0.202-11.495l4.856-12.138c0,0-60.713-14.572-77.714-17.001
		C249.149,245.307,229.725,247.742,229.725,247.742z M379.385,355.994l0.381-9.644C379.545,349.636,379.385,352.982,379.385,355.994
		z M410.791,321.42c-0.096-0.893-0.144-1.589-0.144-2.036c0-4.852-2.429-15.781-8.5-18.215c-2.292-0.917-7.162-6.655-12.412-13.912
		c0.655,21.698-23.607,25.347-23.607,25.347l-9.312-9.31c31.044-1.863,27.317-23.591,27.317-23.591
		c-20.483,18.626-40.354-1.863-40.354-1.863c19.364,2.321,25.466-11.382,27.323-22.02c-0.263-0.774-0.44-1.453-0.524-2.006
		c0,0-1.214,12.144-26.71,10.93c0,0-3.644,25.501,8.501,35.217c3.285,2.625,6.93,5.97,10.494,9.441
		c0.888,15.983,3.429,63.421,3.429,80.351c0,20.49-5.583,30.729-5.583,30.729l6.519,1.856c0,0,6.519-18.62,4.648-32.591
		c-1.326-9.989-1.231-50.182-1.07-72.303c0.137,0.137,0.262,0.268,0.393,0.411c-0.154-0.185-0.256-0.286-0.256-0.286
		s27.942-2.798,27.942-18.162c0,0,3.727,1.863,5.584,3.727c1.82,1.821-19.454,20.495-28.682,19.626
		c0.065,0.065,0.125,0.143,0.19,0.208C380.098,324.271,398.814,329.492,410.791,321.42z M231.398,238.099
		c0,0-13.64-5.203-22.599-14.888c-6.522,5.589-11.077,12.441-11.773,13.507l-0.019,0.113c16.12-7.977,32.711,10.917,32.711,10.917
		l2.119-9.911C231.564,238.003,231.398,238.099,231.398,238.099z M204.015,216.651c-1.03-1.893-1.816-3.911-2.312-6.036
		c-0.97,6.012-2.654,15.132-4.685,26.103c0.006,0,0.006,0,0.006-0.006l2.703-14.138
		C200.794,220.199,202.271,218.252,204.015,216.651z M187.936,289.632c0,0,0.036,0.012,0.096,0.03l1.148-4.995
		c3.321,3.018,9.869,1.774,15.728-0.297c-7.947-2.685-15.108-2.191-15.108-2.191c1.519-1.994,3.375-3.595,5.447-4.887
		c-2.965-1.018-4.828-1.946-4.828-1.946l0.863-6.28c-0.048-0.083-0.077-0.167-0.113-0.256c-1.619,9.113-3.256,18.572-4.792,27.984
		l1.607-6.959C187.972,289.769,187.948,289.704,187.936,289.632z M395.153,384.621l-0.929-3.727
		c1.959,1.31,8.953-0.589,12.953-1.845c-6.161,1.208-13.59-1.762-13.863-1.869c1.112,7.113,2.488,13.566,3.976,15.055
		c3.328,3.333,16.771-0.441,19.086-14.055c-0.148,0.53-0.273,0.857-0.273,0.857C397.481,388.818,395.153,384.621,395.153,384.621z
		 M379.795,345.981c0.221,0.125,8.529,4.583,20.014-0.935c0,0-15.835-0.929-19.091-8.382c0,0,0.036-0.536,0.048-1.345
		C380.444,338.314,380.074,342.083,379.795,345.981z M411.642,327.92c-2.029,0.727-15.382,5.155-29.531,1.292
		c0,0,13.507,13.971,31.192,12.108c0,0-17.229,13.507-33.521,11.173c0,0,0.93,9.316,9.312,9.316c0,0-1.399,4.185-3.728,4.649
		c0,0-3.638-3.19-5.971-8.655c0.107,4.75,0.673,8.346,2.096,8.929c7.811,3.203,9.18-11.471,9.18-11.471s0.465,5.185,1.243,11.68
		c4.667,2.75,14.412-3.738,14.412-3.738c-5.12,3.256-13.978,0.928-13.978,0.928l-1.394-7.453c2.327,9.31,23.745-0.464,23.745-0.464
		c-2.333,11.638-21.882,14.9-21.882,14.9c6.519,6.982,23.739,0.464,23.739,0.464c0.048,0.19,0.09,0.375,0.125,0.565
		C416.399,359.357,413.28,339.463,411.642,327.92z M334.262,601.856l-0.061,0.173c13.876-1.613,30.682,5.648,30.682,5.648
		c0,0.66-0.024,1.327-0.055,1.964c0.613-4.75,0.93-9.743,1.077-14.536c-0.035-0.006-0.06,0-0.095,0
		C354.067,594.261,337.518,600.559,334.262,601.856z M356.508,591.38c-4.196-2.102-17.931-1.019-18.889-0.939
		c-0.981,3.708-2.257,7.631-3.481,11.471c0.041-0.019,0.077-0.035,0.125-0.054l2.06-6.44
		C338.804,593.237,356.508,591.38,356.508,591.38z M331.72,609.815l0.827-2.577c-0.023-0.02-0.049-0.03-0.071-0.042
		C332.208,608.089,331.958,608.958,331.72,609.815z M332.636,606.667c0.029-0.007,0.06-0.007,0.09-0.007l1.481-4.631
		c-0.042,0.006-0.077,0.012-0.118,0.012C333.583,603.606,333.095,605.148,332.636,606.667z M350.138,546.573
		c-14.483-1.613-22.817-7.514-24.621-8.905c0.048,0.095,0.083,0.19,0.125,0.285c0.696,1.613,1.689,3.715,2.846,6.167
		C337.655,547.341,344.716,547.698,350.138,546.573z M196.883,237.498l0.125-0.673h-0.006
		C196.966,237.051,196.925,237.277,196.883,237.498z M296.557,317.342c10.179,3.006,19.197,4.929,26.645,6.155
		c10.603-20.894,15.918-36.651,15.918-36.651C328.517,301.955,312.76,311.425,296.557,317.342z M349.054,626.764
		c-6.061-6.055-18.626-11.174-18.626-11.174l0.619-2.173c3.727-0.31,10.869,5.28,10.869,5.28c-1.81-3.315-10.013-7.488-10.513-7.738
		c-2.132,8.061-2.59,14.447,2.738,15.632c10.465,2.327,26.472,1.298,29.96-12.632c-10.995-8.293-27.383-7.607-31.377-7.299
		l-0.179,0.578C347.685,617.745,349.054,626.764,349.054,626.764z M307.802,500.153c-0.619-0.375-1.144-0.709-1.596-0.978
		c-0.314-0.185-0.596-0.423-0.856-0.702c0.423,6.841,2.542,42.58,0.856,50.991l5.59,8.382l-1.737-56.248
		C309.302,501.344,308.516,500.784,307.802,500.153z M393.088,375.698l-0.917-6.762
		C392.439,371.138,392.755,373.442,393.088,375.698z M235.987,533.263c4.59,1.93,8.394,2.863,9.412,3.103
		c1.416-4.77,2.077-8.447,2.356-10.341C244.826,529.732,240.559,531.965,235.987,533.263z M216.807,516.868
		c2.375,5.44,6.862,9.507,11.607,12.489c5.423-1.042,9.811-2.702,9.811-2.702c-9.256-1.286-15.383-5.691-19.014-9.382
		C217.688,517.077,216.807,516.868,216.807,516.868z M214.569,502.017c-0.006,0.083-0.012,0.16-0.023,0.244
		c0.916,4.661,3.613,8.482,7.113,11.584c9.239,0.388,21.674-6.048,27.204-9.228C230.796,509.862,215.795,502.636,214.569,502.017z
		 M235.737,560.859c-5.042,3.619-9.655,5.846-13.572,7.19c3.597,2.161,8.566,4.131,14.751,4.222
		C235.671,568.521,235.1,564.771,235.737,560.859z M230.779,447.959c12.107,6.52,33.996,3.721,33.996,3.721
		c-18.162-0.465-33.996-14.436-33.996-14.436c-0.149-0.286-0.28-0.596-0.417-0.895c1.083,5.828,0.339,10.217-0.869,14.098
		C230.242,448.971,230.779,447.959,230.779,447.959z M251.899,409.796c5.507-3.459,10.751-7.358,15.732-11.603
		c-7.648-0.875-16.065-1.119-24.056,0.125c-7.096,6.501-12.304,12.287-14.481,14.799
		C232.969,409.563,241.922,409.01,251.899,409.796z M217.67,564.776c5.395-0.91,11.245-2.738,11.245-2.738
		c-1.138,0-2.453-0.345-3.846-0.904c-3.328,0.769-6.822,1.375-9.661,1.375C215.414,562.509,216.182,563.455,217.67,564.776z
		 M277.216,389.324c-5.689,1.03-13.077,2.631-22.691,5.078c0,0,9.096-1.369,19.073-1.554
		C274.823,391.693,276.031,390.521,277.216,389.324z M255.227,501.629c0-0.035,0-0.071-0.007-0.112c0,0,4.988-4.988,9.369-13.27
		c-5.452,3.548-14.821,4.602-23.732,4.644C247.024,497.403,253.202,500.623,255.227,501.629z M215.045,511.939
		c0.305,1.631,0.714,3.352,1.269,5.179C216.397,514.827,215.372,512.595,215.045,511.939z M236.63,557.377
		c-0.096,0.167-0.179,0.328-0.269,0.471c0,0-1.561,0.561-3.923,1.286c1.453,0.291,2.679,0.44,3.536,0.506
		C236.142,558.896,236.362,558.14,236.63,557.377z M213.08,526.655c0,0,0.27,0.994,0.988,2.522c2.405,0.899,5.31,1.119,8.257,0.965
		c-4.834-4.436-7.203-9.18-6.447-10.94c0.244-0.577,0.369-1.173,0.423-1.78c-0.387,0.721-2.465,4.745-3.529,9.59
		C212.872,526.887,212.967,526.762,213.08,526.655z M243.351,503.832c-10.37,0-25.146-7.209-27.218-8.251
		c-0.435,1.144-0.797,2.356-1.089,3.649C224.843,505.219,243.351,503.832,243.351,503.832z M239.232,551.794
		c0.095-0.203,0.178-0.411,0.268-0.619c-1.792-0.471-7.453-2.06-13.174-4.59c-6.965,1.155-12.305,0.089-12.305,0.089
		c3.648,6.395,9.328,9.65,14.162,11.312c3.987-1.196,7.846-2.936,10.673-5.446C238.982,552.288,239.107,552.038,239.232,551.794z
		 M228.51,542.531c5.947-1.375,11.114-3.774,11.114-3.774c-4.215-0.744-7.971-2.25-11.186-4.119
		c-4.03,0.394-7.853,0.305-10.786,0.089C220.01,537.513,223.48,540.46,228.51,542.531z M212.724,536.733
		c0.56,1.958,0.601,4.439,0.345,7.215l0.481-2.864c1.667,1.566,4.042,2.238,6.674,2.37c-3.853-2.346-6.978-5.155-7.863-8.37
		C212.444,535.644,212.569,536.186,212.724,536.733z M245.243,536.87c-3.429,3.542-7.221,5.905-10.947,7.459
		c2.305,0.506,4.841,0.845,7.655,0.952c0,0-1.131,2.82-2.458,5.894c0.019,0.006,0.029,0.013,0.041,0.013
		C242.166,545.918,243.988,541.007,245.243,536.87z M233.362,492.718c-8.507-0.423-15.155-1.452-15.155-1.452
		c3.513,6.149,17.549,8.805,27.466,9.924C240.38,499.135,236.344,495.998,233.362,492.718z M199.335,316.682
		c-6.727-4.542-13.709-7.012-14.923-7.423c-0.846,5.536-1.626,10.983-2.34,16.257l1.518-4.846
		C186.995,323.23,194.781,319.366,199.335,316.682z M283.002,383.282c-3.237-2-6.362-4.042-9.376-6.096
		c-9.959,4.703-19.341,11.721-26.982,18.394c10.648-4.131,23.982-8.745,35.008-10.81C282.11,384.27,282.556,383.776,283.002,383.282
		z M214.944,314.777c-0.565-0.482-1.464-0.935-2.561-1.357C213.961,314.289,214.944,314.777,214.944,314.777z M192.639,298.401
		c2.458,2.893,5.564,5.583,8.673,7.917c7.132,0.482,13.269,2.405,15.263,3.096l0.173-0.583
		C211.938,301.573,199.99,299.187,192.639,298.401z M185.68,301.127c-0.424,2.667-0.841,5.322-1.238,7.959
		c1.977-0.994,4.078-1.69,6.221-2.143C188.132,304.383,186.305,301.966,185.68,301.127z M190.537,295.626
		c12.286-5.649,29.532-0.411,29.532-0.411c-2.274-3.203-5.03-5.619-7.937-7.447c-11.238,5.786-22.988,2.25-24.103,1.893
		l-0.048,0.179C188.395,291.805,189.293,293.746,190.537,295.626z M183.668,326.575c11.256-0.172,24.562,6.346,28.002,8.138
		c0.148-0.673,0.297-1.346,0.452-2.024c-1-4.28-3.536-7.977-6.697-11.09C197.264,325.313,187.698,326.313,183.668,326.575z
		 M226.933,252.487c-1.065,1.53-2.196,2.929-3.411,4.179c4.238,4.816,5.394,10.156,5.394,10.156l-4.19,12.572
		c-0.577-0.339-1.269-0.619-2.035-0.869c-1.655,2.28-3.437,4.173-5.286,5.727c2.887,1.929,4.988,3.524,4.988,3.524l-2.792,10.245
		c-0.93-1.399-20.021-1.863-13.508-1.399c6.514,0.464,12.108,7.453,12.108,7.453l-1.453,4.756c0.18,0.274,0.363,0.542,0.52,0.827
		c0,0-0.251-0.095-0.691-0.25l-1.631,5.37c-1.179,1.405-2.565,2.637-4.09,3.732c2.173,2.078,3.62,3.72,3.62,3.72l-0.072,0.458
		c4.959-21.412,10.453-43.378,10.453-43.378l7.19-19.186l-0.035-0.292C230.891,256.546,229.075,254.183,226.933,252.487z
		 M239.511,342.255c9.869,4.596,30.072,9.745,69.319,6.679c3.472-5.518,6.645-10.977,9.52-16.233
		c-59.563,12.037-86.946-5.816-86.946-5.816C233.159,332.367,235.951,337.481,239.511,342.255z M231.909,320.623
		c-0.334,1.72-0.606,3.393-0.774,4.994c0.145-0.756,0.293-1.429,0.424-1.982C231.648,322.48,231.779,321.486,231.909,320.623z
		 M303.695,394.664c-4.549-2.191-8.959-4.524-13.21-6.947c-0.732,0.018-1.554,0.06-2.482,0.125
		c-1.798,1.792-3.595,3.536-5.387,5.239c5.702,0.452,10.863,1.571,13.816,3.881C296.432,396.967,299.188,395.872,303.695,394.664z
		 M314.594,327.194c-8.196-0.101-19.008-2.655-29.973-6.107c-14.924,3.97-29.246,5.339-39.271,5.768
		C275.722,334.874,314.594,327.194,314.594,327.194z M312.016,291.906c-32.532,8.935-74.41-0.72-74.41-0.72
		c15.347,9.256,30.05,16.025,43.408,20.978c27.52-7.131,43.359-20.204,43.359-20.204
		C320.052,292.031,315.945,292.007,312.016,291.906z M236.796,268.077c-1.958,0.345-3.101,0.631-3.423,0.726
		c0.93,6.399,2.28,14.812,3.632,20.216c0.196,0.804,0.321,1.673,0.382,2.583c-0.269-6.018-1.959-10.977-1.959-10.977
		c13.007,3.804,25.252,5.667,36.342,6.316C251.875,281.888,241.809,274.036,236.796,268.077z M247.72,266.88
		c17.077,10.769,41.307,15.733,60.534,18.02c13.167-2.31,20.93-5.512,20.93-5.512C290.044,267.232,262.906,266.005,247.72,266.88z"
		/>
</g>
<g display="none">
	<path display="inline" d="M464.485,305.026c29.288-167.464-90.064-196.443-90.064-196.443c-87.305-30.121-153.57,0-153.57,0
		s-119.354,28.979-90.042,196.443c-23.057-21.585-56.373-47.581-56.373-47.581s6.269,13.811,23.014,82.024
		c13.108,53.337,46.057,57.373,59.844,56.593c16.062,41.229,38.949,88.018,71.064,141.569c0,0,30.104,60.236,60.229,60.236h18.091
		c30.114,0,60.242-60.236,60.242-60.236c32.115-53.552,55.01-100.341,71.059-141.569c13.793,0.78,46.718-3.256,59.854-56.593
		c16.739-68.208,23.003-82.024,23.003-82.024S487.517,283.441,464.485,305.026z M172.846,346.654c0,0,45.89-37.324,104.132,0
		C218.736,383.966,172.846,346.654,172.846,346.654z M318.034,346.654c0,0,45.891-37.324,104.126,0
		C363.925,383.966,318.034,346.654,318.034,346.654z"/>
</g>
<g display="none">
	<path display="inline" d="M422.053,560.294l-1.637-388.539c0,0,8.924-92.239-108.192-92.239
		c-125.669,0-139.039,90.977-139.039,219.057c0,170.131,149.688,255.34,149.688,255.34s4.263,59.641,53.254,59.641
		C425.119,613.548,422.053,560.294,422.053,560.294z M393.914,463.431c-2.862,4.202-8.398,8.857-18.857,8.857
		c-1.482,0-3.065-0.09-4.75-0.292c-50.242-6-69.612-44.276-75.493-59.944c-8.889,1.988-24.859,3.44-38.225-6.84
		c-17.471-13.441-23.757-41.759-18.69-84.161c4.917-41.182,20.377-69.719,45.914-84.822c31.925-18.876,70.243-11.162,87.536-6.072
		c-0.524-55.272-6.84-93.566-57.165-93.566c-39.324,0-67.226,17.608-82.93,52.343c-11.981,26.52-12.126,53.254-12.126,53.521
		c0,3.679-2.987,6.661-6.661,6.661c-3.679,0-6.654-2.982-6.654-6.661c0-1.208,0.148-29.901,13.305-59.01
		c12.4-27.455,38.974-60.177,95.066-60.177c70.521,0,70.521,67.142,70.521,116.169c0,1.197-0.326,2.352-0.916,3.346l0.257,50.259
		c0.012,1.929-0.828,3.774-2.274,5.048c-1.452,1.274-3.381,1.857-5.298,1.589c-6.209-0.839-24.347-1.441-33.646,5.744
		c-3.375,2.625-5.285,6.072-5.82,10.537c-0.399,3.381-3.28,5.87-6.603,5.87c-0.263,0-0.536-0.018-0.804-0.048
		c-3.649-0.435-6.257-3.75-5.822-7.399c0.965-8.096,4.639-14.662,10.931-19.513c10.702-8.256,26.607-9.209,35.973-8.941
		l-0.215-42.063c-13.405-4.232-50.747-13.437-79.945,3.869c-21.74,12.882-35.003,38.086-39.401,74.898
		c-4.411,36.883,0.291,61.79,13.578,72.022c13.346,10.257,31.8,3.102,31.973,3.03c1.805-0.721,3.833-0.618,5.555,0.286
		c1.72,0.888,2.952,2.494,3.397,4.388c0.482,2.023,12.562,50.004,66.256,56.415c8.394,1,10.37-1.889,11.019-2.841
		c7.322-10.769-6.435-47.295-18.549-69.802c-1.536-2.857-0.792-6.412,1.762-8.406c0.882-0.696,21.704-17.364,10.639-31.437
		c-4.418-5.62-9.572-4.542-13.107-2.637c-8.001,4.28-16.567,18.472-10.62,36.586c1.155,3.494-0.75,7.263-4.244,8.405
		c-3.501,1.143-7.257-0.756-8.411-4.25c-7.882-23.948,2.863-44.92,16.972-52.48c10.87-5.828,22.335-3.471,29.896,6.149
		c4.833,6.155,6.84,13.031,5.94,20.436c-1.369,11.328-9.53,20.948-14.661,25.978C386.872,400.89,406.832,444.459,393.914,463.431z"
		/>
</g>
<g display="none">
	<path display="inline" d="M557.688,241.236c-20.472-63.082-84.75-99.215-146.528-84.262c-0.018-0.03-0.028-0.065-0.047-0.095
		c-55.546-25.46-126.896-29.871-197.532-6.941C85.339,191.572,7.965,307.455,40.003,409.308l-0.042,0.013
		c0.071,0.214,0.154,0.417,0.228,0.625c0.077,0.244,0.131,0.5,0.214,0.744l0.048-0.019
		c33.901,101.251,164.583,149.582,292.818,107.947c70.636-22.931,125.794-68.409,155.79-121.646
		c-0.077-0.529-0.16-1.035-0.237-1.564C547.462,371.15,578.142,304.234,557.688,241.236z M380.694,194.786
		c16.513-5.363,34.252,3.679,39.609,20.198c5.364,16.507-3.673,34.241-20.191,39.61c-16.52,5.364-34.259-3.679-39.616-20.198
		C355.139,217.877,364.18,200.149,380.694,194.786z M285.55,164.201c16.52-5.363,34.247,3.679,39.615,20.198
		c5.358,16.513-3.679,34.247-20.197,39.616c-16.519,5.357-34.253-3.685-39.615-20.204
		C259.994,187.297,269.031,169.564,285.55,164.201z M220.945,260.356c16.513-5.357,34.252,3.685,39.609,20.198
		c5.362,16.513-3.68,34.247-20.197,39.616c-16.521,5.357-34.247-3.679-39.61-20.198
		C195.389,283.459,204.425,265.726,220.945,260.356z M99.661,266.678c16.521-5.364,34.247,3.679,39.61,20.198
		c5.362,16.519-3.68,34.247-20.198,39.61c-16.513,5.364-34.246-3.679-39.609-20.198C74.101,289.769,83.149,272.042,99.661,266.678z
		 M153.88,476.938c-16.514,5.363-34.247-3.68-39.609-20.197c-5.357-16.507,3.679-34.246,20.197-39.604
		c16.52-5.364,34.246,3.68,39.609,20.197C179.442,453.853,170.399,471.58,153.88,476.938z M263.084,523.464
		c-16.52,5.358-34.253-3.679-39.609-20.197c-5.363-16.514,3.679-34.247,20.197-39.609c16.514-5.357,34.246,3.685,39.609,20.198
		C288.64,500.367,279.603,518.101,263.084,523.464z M354.019,427.832c-16.519,5.358-34.252-3.685-39.61-20.197
		c-5.356-16.513,3.674-34.247,20.192-39.61c16.513-5.357,34.253,3.679,39.616,20.192
		C379.574,404.735,370.531,422.469,354.019,427.832z M486.975,384.056c-0.936-5.31-1.965-10.346-3.042-15.222
		c-2.613,1.905-5.471,3.554-8.721,4.602c-16.515,5.358-34.253-3.679-39.61-20.198c-5.363-16.513,3.673-34.247,20.192-39.616
		c2.981-0.97,5.981-1.315,8.965-1.381c-2.238-4.476-4.52-8.697-6.84-12.489c-25.15,3.732-148.743,24.52-391.624,103.376
		l-0.512-1.601c241.721-78.477,354.043-134.105,377.33-146.219c-1.518-22.454-8.84-51.474-26.806-88.054
		c55.469-12.072,112.556,20.787,130.932,77.375C565.588,301.127,538.806,361.167,486.975,384.056z"/>
</g>
<g display="none">
	<path display="inline" d="M310.987,444.435c1.994-4.25,3.023-10.523,1.262-19.702c-4.731-24.621,13.103-34.123,16.645-68.845
		c1.857-18.257-6.875-34.77-15.572-46.331c13.905-7.072,23.646-23.275,23.646-42.158c0-13.697-5.149-25.96-13.27-34.377
		c-0.703-6.745-2.632-12.417-5.013-17.079c6.905-6.179,13.537-12.649,19.924-19.358c5.167-5.667,9.995-11.662,14.847-17.608
		c4.889-5.911,9.966-11.632,14.947-17.507c2.482-2.953,4.923-5.941,7.049-9.34c2.237-3.589,3.19-7.489,4.083-11.298
		c1.571-7.673,2.405-15.37,2.853-23.067c0.446-7.691,0.314-15.394,0-23.067c-0.315-7.673-0.946-15.34-2.054-22.966l-0.507,0.024
		c-1.262,15.322-1.977,30.562-2.792,45.735c-0.398,7.572-0.708,15.173-1.792,22.573c-0.548,3.667-1.137,7.405-2.631,10.537
		c-1.564,3.31-3.697,6.494-5.856,9.608c-4.389,6.214-9.412,12.006-14.771,17.447c-5.417,5.399-11.09,10.531-16.536,15.882
		c-6.238,6.357-12.399,12.798-18.431,19.388c-5.346-8.875-11.805-13.227-11.805-13.227c3.982,9.459,4.78,16.513,4.321,21.621
		c-0.512,0.589-1.018,1.185-1.522,1.774c-3.299-1.048-6.745-1.661-10.316-1.661c-4.488,0-8.786,0.929-12.799,2.548
		c-0.631-0.744-1.279-1.494-1.916-2.232c-0.548-5.137,0.172-12.316,4.272-22.049c0,0-6.564,4.423-11.936,13.447
		c-6.083-6.667-12.311-13.173-18.62-19.608c-5.446-5.352-11.126-10.483-16.543-15.882c-5.352-5.447-10.375-11.233-14.774-17.447
		c-2.154-3.114-4.292-6.304-5.852-9.608c-1.5-3.131-2.09-6.87-2.638-10.537c-1.077-7.399-1.381-15.001-1.779-22.573
		c-0.815-15.162-1.536-30.407-2.798-45.735l-0.5-0.018c-1.107,7.625-1.738,15.292-2.054,22.966c-0.315,7.679-0.446,15.376,0,23.067
		c0.445,7.697,1.292,15.388,2.852,23.067c0.887,3.81,1.839,7.709,4.077,11.298c2.125,3.405,4.572,6.381,7.061,9.334
		c4.982,5.875,10.055,11.596,14.947,17.507c4.852,5.947,9.673,11.941,14.84,17.608c6.453,6.786,13.162,13.322,20.15,19.561
		c-2.744,5.453-4.853,12.287-5.144,20.549c-6.269,8.144-10.113,18.888-10.113,30.716c0,18.698,9.555,34.753,23.245,41.938
		c-5.077,6.709-10.18,15.12-13.216,24.585l-0.125-0.227c-6.648,2.667-13.148,5.62-19.565,8.733
		c-4.357-4.203-8.764-8.364-13.293-12.37c-4.84-4.292-10.001-8.232-15.043-12.292c-10.103-7.774-19.187-16.68-28.127-25.734
		c-0.602-8.262-1.41-16.495-2.299-24.716c-0.861-8.405-1.743-16.805-2.929-25.168c-1.105-8.382-2.535-16.715-3.845-25.055
		c-1.465-8.328-2.947-16.656-4.793-24.931l-0.5,0.06c0.25,8.483,0.856,16.918,1.481,25.353c0.78,8.417,1.436,16.84,2.424,25.228
		c0.898,8.399,2.106,16.763,3.34,25.121c1.185,8.364,2.439,16.716,3.929,25.043l0.119,0.685l0.404,0.322
		c10.119,8.09,20.12,16.322,29.056,25.722c4.565,4.596,9.023,9.311,13.787,13.686c4.763,4.375,9.686,8.572,14.638,12.739
		l1.084,0.911l1.095-0.643c6.472-3.798,12.828-7.792,19.031-12.072c-2.106,6.745-3.161,14.013-2.393,21.579
		c1.82,17.853,7.411,29.032,11.779,39.033c-7.102-2.584-14.273-4.864-21.502-6.965c-7.31-2.054-14.619-4.09-22.007-5.81
		c-7.394-1.703-14.918-2.905-22.371-4.357c-7.465-1.423-14.821-3.268-22.133-5.322l-0.612-0.173l-0.404,0.583
		c-4.482,6.53-9.215,12.906-13.597,19.496c-4.352,6.602-8.769,13.18-12.96,19.888c-4.214,6.697-8.125,13.573-12.001,20.483
		c-3.881,6.905-7.577,13.924-11.013,21.104l0.423,0.262c4.923-6.25,9.578-12.668,14.062-19.204
		c4.487-6.529,8.93-13.078,13.071-19.815c4.161-6.728,8.108-13.584,12.108-20.418c3.863-6.655,7.405-13.513,11.161-20.24
		c7.186,1.554,14.315,3.304,21.358,5.458c7.273,2.185,14.488,4.631,21.822,6.572c7.34,1.917,14.757,3.536,22.182,5.119
		c7.439,1.536,14.924,2.863,22.482,3.899l0.061-0.238c4.054,9.316,7.001,17.667,4.727,29.49l-0.143-0.215
		c-10.3,5.816-20.265,12.097-30.074,18.627c-4.875,3.298-9.774,6.571-14.542,10.019c-4.78,3.44-9.389,7.119-14.066,10.703
		l-0.548,0.416l-0.054,0.542c-1.256,13.149-3.321,26.175-6.03,39.092c-2.715,12.925-5.304,25.865-7.53,38.86
		c-2.429,12.971-4.435,25.996-6.102,39.086c-1.715,13.078-3.262,26.181-4.232,39.384l0.494,0.083
		c3.208-12.834,5.834-25.774,8.304-38.733c2.508-12.959,4.687-25.96,6.431-39.039c1.952-13.036,3.542-26.146,5.006-39.266
		c1.439-12.894,3.523-25.68,6.37-38.354c4.833-3.036,9.731-5.988,14.471-9.167c4.895-3.274,9.674-6.721,14.466-10.145
		c9.465-6.857,18.757-13.972,27.729-21.53c-1.69,9.148-0.607,15.37,1.429,19.565c-14.899,8.12-25.531,28.968-25.531,53.486
		c0,31.567,17.591,57.152,39.282,57.152c21.698,0,39.282-25.585,39.282-57.152C336.958,473.401,326.118,452.376,310.987,444.435z
		 M283.413,224.61c-0.019-0.065-0.023-0.137-0.042-0.208c0.065,0.048,0.125,0.095,0.179,0.143
		C283.508,224.568,283.46,224.586,283.413,224.61z M385.712,542.781c-2.231-13.001-4.821-25.938-7.536-38.86
		c-2.708-12.917-4.773-25.941-6.03-39.092l-0.053-0.542l-0.548-0.416c-4.68-3.584-9.294-7.263-14.066-10.703
		c-4.774-3.447-9.668-6.721-14.543-10.019c-9.799-6.53-19.764-12.812-30.073-18.627l-0.286,0.417
		c9.036,7.632,18.4,14.779,27.932,21.697c4.792,3.423,9.561,6.869,14.459,10.145c4.737,3.179,9.638,6.131,14.482,9.167
		c2.84,12.674,4.917,25.46,6.357,38.354c1.465,13.12,3.06,26.224,5.007,39.266c1.756,13.072,3.929,26.08,6.439,39.039
		c2.46,12.959,5.091,25.899,8.3,38.733l0.493-0.083c-0.971-13.203-2.519-26.306-4.232-39.384
		C390.141,568.777,388.14,555.752,385.712,542.781z M445.169,432.743c-3.863-6.911-7.786-13.786-12.002-20.479
		c-4.189-6.715-8.596-13.286-12.959-19.894c-4.382-6.59-9.102-12.971-13.591-19.496l-0.397-0.583l-0.619,0.172
		c-7.311,2.054-14.668,3.893-22.133,5.322c-7.459,1.453-14.978,2.655-22.37,4.357c-7.388,1.721-14.703,3.756-22.008,5.81
		c-7.298,2.113-14.536,4.423-21.704,7.036l0.125,0.494c7.561-1.036,15.043-2.363,22.479-3.899c7.423-1.589,14.84-3.203,22.187-5.12
		c7.328-1.935,14.543-4.381,21.816-6.572c7.042-2.155,14.181-3.905,21.364-5.458c3.75,6.732,7.298,13.584,11.155,20.239
		c4.007,6.828,7.946,13.692,12.114,20.418c4.144,6.738,8.577,13.286,13.071,19.816c4.478,6.536,9.132,12.953,14.062,19.204
		l0.417-0.263C452.746,446.667,449.05,439.654,445.169,432.743z M359.836,330.063c-4.536,4.006-8.931,8.173-13.294,12.37
		c-6.41-3.113-12.911-6.066-19.566-8.733l-0.237,0.447c6.28,4.339,12.728,8.387,19.27,12.233l1.106,0.643l1.077-0.911
		c4.953-4.167,9.87-8.37,14.633-12.739c4.773-4.37,9.228-9.09,13.792-13.686c8.937-9.406,18.931-17.632,29.057-25.722l0.398-0.321
		l0.119-0.685c1.481-8.322,2.738-16.68,3.929-25.043c1.227-8.358,2.43-16.722,3.333-25.121c0.988-8.387,1.645-16.811,2.423-25.228
		c0.619-8.435,1.232-16.87,1.478-25.353l-0.494-0.06c-1.846,8.28-3.327,16.608-4.792,24.93c-1.31,8.352-2.738,16.68-3.846,25.055
		c-1.186,8.358-2.071,16.763-2.93,25.168c-0.875,8.221-1.689,16.454-2.292,24.716c-8.946,9.054-18.019,17.965-28.133,25.734
		C369.829,321.831,364.675,325.771,359.836,330.063z"/>
</g>
<g display="none">
	<path display="inline" d="M348.679,599.518c-12.834-23.681-22.918-32.58-41.896-50.146c1.857-24.74-20.62-25.175-29.216-39.455
		c2.291-22.49-16.966-27.133-30.681-46.771c-6.591-9.431-9.739-22.979-16.079-32.134c-4.696-6.805-14.405-10.578-18.989-17.537
		c-2.488-3.751-4.042-12.007-7.322-17.531c-5.952-10.102-19.273-17.948-26.293-30.699c-2.203-3.982-2.036-9.322-4.388-13.126
		c-14.286-23.18-42.433-37.127-46.759-58.468c-2.107-10.376,4.34-18.186,4.387-27.764c0.03-9.977-5.333-19.96-4.387-30.681
		c4.518-51.307,55.581-81.005,97.904-93.512c9.739-2.899,20.698-3.405,30.675-7.304c50.527-19.799,74.054-67.029,135.902-65.761
		c50.944,1.03,90.078,39.188,73.06,90.602c-16.514,49.867-86.548,62.296-157.814,45.277
		c-22.156,44.175-50.813,116.038-121.276,106.68c-12.071-1.619-21.43-9.691-32.139-10.233c0.553,7.995,6.512,15.489,10.221,21.924
		c4,6.941,7.405,14.507,11.687,20.448c5.036,7.006,13.856,11.881,19.007,19.007c5.822,8.078,8.53,17.697,14.603,24.841
		c9.292,10.911,27.21,15.716,27.771,36.526c11.846,10.001,22.668,16.149,32.146,29.24c6.805,9.388,8.732,23.197,16.066,30.675
		c5.209,5.298,14.187,6.513,19.007,11.697c6.972,7.487,6.52,18.571,13.149,26.306c3.852,4.481,11.674,7.09,16.073,11.69
		c13.398,13.972,19.696,35.288,35.072,49.677c5.447,5.084,12.342,7.064,17.525,11.686c0,0,23.383,20.466,2.917,27.293
		C368.169,628.764,346.733,621.953,348.679,599.518z M325.79,169.439c36.01,8.031,66.576-14.114,74.519-43.842
		C362.884,116.167,332.006,137.997,325.79,169.439z M186.972,236.658c34.566,11.436,72.075-7.572,80.361-36.526
		C232.439,188.488,192.668,204.995,186.972,236.658z"/>
</g>
<g display="none">
	<path display="inline" d="M291.015,618.513c-30.115,0-98.572-7.304-102.223-21.002c-3.654-13.69,9.132-23.716,13.691-27.37
		c4.564-3.638,55.671-18.239,61.146-25.562c5.478-7.292,26.467-23.716,26.467-59.32c0-35.592-2.732-75.749-11.858-90.351
		c0,0,13.686-21.913,12.775-32.866c-0.917-10.935-0.917-22.811-6.395-23.716c-5.477-0.917-14.597,3.655-18.257-0.917
		c-3.644-4.56-14.591-9.113-20.067-11.858c-5.477-2.732-17.347,2.744-20.988,0c-3.655-2.732-12.781-9.131-19.182-12.781
		c-6.381-3.649-22.815-3.649-28.287-5.458c-5.471-1.845-4.56-8.227-9.119-12.775c-4.565-4.578-13.697-9.131-21.9-13.691
		c-8.209-4.572-10.953-10.048-14.607-17.353c-3.648-7.304-16.43-23.733-19.162-24.638c-2.744-0.905-10.043-4.56-10.952-11.864
		c-0.917-7.304-6.383-22.812-10.043-26.46c-3.644-3.667-7.299-15.525-7.299-22.835c0-7.304-6.398-25.562-6.398-33.771
		c0-8.203-2.728-16.412-5.471-20.079c-2.738-3.637-4.565-14.59-1.827-21.895c2.737-7.31-4.566-11.882-1.828-13.686
		c2.738-1.833,24.639,0,24.639,0s18.258-0.922,16.424,2.727c-1.827,3.649-4.554,4.572-4.554,9.144
		c0,4.542,2.727,18.228-5.477,29.198c0,0-5.478,24.627-3.649,32.848c1.828,8.209,10.953,20.99,10.953,27.371
		c0,6.399,1.828,21.007,7.299,26.484c5.482,5.477,9.138,12.769,10.959,15.525c1.815,2.732,8.203,15.495,15.507,19.15
		c7.306,3.649,11.864,8.209,14.608,12.774c2.727,4.56,11.856,16.436,20.989,20.067c9.126,3.667,15.507,7.316,19.161,10.977
		c3.655,3.631,4.566,6.375,12.781,6.375s21.895,1.828,26.466,4.56c4.561,2.732,7.305,10.048,18.258,10.048
		c10.946,0,10.946-2.75,16.424-1.828c5.471,0.905,9.12,6.375,12.781,5.477c3.643-0.923,10.035-7.304,10.035-15.525
		c0-8.209,4.565-16.418-3.648-17.334c-8.221-0.905-10.042,2.744-19.162-1.816c-9.125-4.572-16.424-7.316-24.65-7.316
		c-8.209,0-10.946-1.81-18.251-5.458c-7.298-3.667-17.341-10.971-25.55-11.876c-8.215-0.917-16.436-2.744-20.078-8.209
		c-3.661-5.477-16.441-13.686-21.906-19.18c-5.482-5.465-12.774-6.381-12.774-14.59c0-8.227-5.478-28.312-7.304-31.038
		c-1.827-2.732-5.478-7.304-5.478-14.59c0-7.304,0-21.912-1.828-27.407c-1.82-5.458,0.923-10.019-1.82-13.667
		c-2.738-3.649-8.209-7.316-8.209-17.334c0-10.048,4.561-16.454,4.561-16.454s-4.561-6.381-3.655-9.108h38.343
		c0,0,0.904,9.108-2.744,10.936c0,0-1.827,2.75,0,8.227c1.826,5.477,0,13.703-1.827,17.353c-1.828,3.631-6.382,7.286-6.382,10.941
		c0,3.649,0,7.304,0,12.775c0,5.465-1.827,12.769,0,19.162c1.826,6.381,4.554,9.131,4.554,16.436c0,7.286,0.923,17.334,3.655,20.99
		c2.744,3.649,10.042,5.477,11.857,13.679c1.833,8.227,11.875,14.608,17.353,17.358c5.471,2.732,9.132,5.459,18.239,10.037
		c9.132,4.56,10.966,8.209,20.084,8.209c9.127,0,15.521,1.828,21.912,5.477c6.383,3.649,10.947,4.554,20.079,5.477
		c9.126,0.905,7.298-4.572,11.858-3.649c4.564,0.899,10.953,7.304,11.87,3.649c0.916-3.655,0-23.734-4.566-25.562
		c-4.56-1.81-9.119,5.477-15.513,2.75c-6.388-2.75-15.521-11.876-20.996-11.876c-5.477,0-13.687,0.935-24.639-7.31
		c-10.953-8.209-26.467-17.334-28.287-30.121c0,0-8.215-5.458-8.215-17.334c0,0-8.209-29.193-7.299-39.229l0.904-7.304
		c0,0-7.286-6.399-7.286-14.608c0-8.208,4.548-11.875,2.732-15.524c-1.828-3.637-7.306-10.936-2.732-10.936
		c4.548,0,36.497,0,36.497,0s2.731,7.298-0.898,10.936c0,0,4.548,16.43,0,19.162c-4.571,2.768-8.228,9.15-9.139,13.704
		c-0.91,4.578-0.91,6.381-0.91,10.959c0,4.56-1.827,16.418,0,19.162c1.827,2.75,9.125,19.168,10.953,25.562
		c1.821,6.399,10.036,18.239,15.514,19.168c5.477,0.899,10.035,0,15.513,1.827c5.477,1.828,7.305,10.031,14.603,10.031
		c7.305,0,13.691,0,18.258,0.923c4.554,0.905,12.774,4.56,13.686,0.905c0.917-3.655,0.917-25.562-4.56-30.121
		c-5.482-4.578-22.817-1.828-29.21-5.477c-6.389-3.649-11.858-5.477-13.687-10.959c-1.828-5.458-4.572-22.799-4.572-29.21
		c0-6.381-4.56-10.019-4.56-13.667s-5.478-11.876-4.566-17.334c0.917-5.495,4.566-8.227,3.661-12.799
		c-0.923-4.56-7.304-10.036-2.744-10.959c4.566-0.899,36.497,0.923,36.497,0.923s5.482,2.744-1.814,9.144
		c0,0,2.73,12.77-0.917,19.15c-3.655,6.381-5.478,10.953-5.478,16.436c0,5.477-0.898,5.477-0.898,12.774
		c0,7.298,0,19.162,5.465,20.984c5.477,1.827,10.953,4.56,15.52,3.649c4.565-0.899,14.597-2.744,10.947-11.87
		c-3.649-9.131-7.299-13.686-3.649-17.34c3.649-3.649,4.561-16.412,1.821-19.144c-2.738-2.75-1.821-8.227-1.821-8.227
		s-5.481-4.572-4.571-15.525c0.923-10.959,2.751-16.418,2.751-16.418s-5.478-4.56-5.478-10.048l41.067,1.833
		c0,0,0.905,8.221-2.744,11.876c0,0,2.744,7.298,1.828,12.763c-0.905,5.495-7.311,13.704-8.209,17.335
		c-0.923,3.667,2.728,6.417-0.923,10.048c-3.648,3.649-0.899,10.036,0.923,15.507c1.827,5.482-1.828,10.042-2.738,14.608
		c-0.91,4.578-1.84,12.774,0.91,13.703c2.728,0.899,15.509,2.732,20.073-0.923c4.565-3.649,5.488-8.203,9.12-10.048
		c3.647-1.827,6.393-13.686,3.647-17.34c-2.731-3.649-3.647-11.858-3.647-11.858s-7.299-11.858-7.299-18.233
		c0-6.399,3.661-11.876,3.661-11.876l-3.661-10.036h37.42c0,0,1.827,7.286-0.911,11.858c-2.738,4.56,5.477,16.43-3.649,27.389
		c0,0-0.916,5.477-3.647,10.037c0,0,1.827,11.858-2.738,20.067c-4.566,8.221-10.049,13.703-11.87,18.257
		c-1.814,4.571-7.304,4.571-11.857,4.571c-4.565,0-18.251,2.732-20.983,6.382c-2.75,3.667-7.304,9.125-7.304,14.608
		c0,5.477-2.75,12.775,0,15.507c2.737,2.726,10.036,0,17.334,0c7.299,0,18.252-0.905,24.639-5.483
		c6.399-4.554,5.482-3.643,14.608-4.554c9.132-0.923,17.335-11.876,19.162-19.186c1.834-7.286,4.564-10.935,7.304-14.584
		c2.751-3.655,6.388-22.829,5.482-28.294c-0.91-5.477-3.648-15.507-3.648-15.507s-7.304-18.257,0-29.21
		c0,0-10.036-12.781-6.382-11.858c3.638,0.898,37.42,0,37.42,0s6.375,2.726,0,10.036c0,0,6.375,14.603-3.649,28.288
		c0,0,2.728,5.483-0.917,10.037c0,0-5.481,10.971-6.393,14.608c-0.905,3.649-8.215,22.812-7.305,26.466
		c0.923,3.649,0.923,13.686-4.561,16.43c-5.477,2.75-6.388,14.608-30.121,28.294c0,0-7.298,7.304-14.597,7.304
		c0,0-22.822,2.75-27.39,6.382c-4.56,3.649-10.042,0.922-12.779,0c-2.728-0.899-8.203,2.75-8.203,6.399s-0.917,17.334,4.554,18.233
		c5.482,0.923,4.578,0.923,12.781-0.899c8.215-1.827,13.69,0.899,19.161,0c5.478-0.922,10.043-7.304,14.607-8.208
		c4.572-0.917,10.037,0.905,16.431,0c6.382-0.917,24.639-7.304,26.467-10.959c1.827-3.643,3.643-6.375,7.304-6.375
		c3.645,0,16.418-9.144,19.168-13.704c2.732-4.56,4.565-10.953,8.228-14.608c3.632-3.649,10.936-12.774,10.936-17.334
		s-3.648-9.125,0-14.608c3.649-5.459,5.478-20.067,5.478-26.449c0-6.411,0.91-10.048-1.827-12.792
		c-2.732-2.726-2.732-6.381-2.732-6.381s-7.305-7.286-7.305-12.774c0-5.459,4.561-15.507,4.561-15.507s-9.107-8.215-5.477-10.959
		c3.647-2.75,36.514-0.899,36.514-0.899s5.478,6.375-0.922,10.936c0,0,9.131,16.436-1.815,27.389c0,0,0,13.686-1.821,18.257
		c-1.833,4.56-5.488,15.507-5.488,23.734c0,8.209,0,10.036-3.655,19.144c-3.631,9.149-10.036,18.257-10.935,23.734
		c-0.923,5.482-0.923,11.876-8.229,15.513c-7.285,3.667-20.988,13.698-23.716,20.085c-2.75,6.381-7.314,11.852-12.779,11.852
		c-5.478,0-11.864,2.75-22.817,6.399c-10.947,3.637-13.691,9.131-20.983,10.959c-7.305,1.828-11.87-2.75-20.989,0
		c-9.132,2.732-18.251,10.037-21.906,9.125c-3.648-0.917-5.478-9.125-8.228-3.649c-2.727,5.477-5.471,14.59-2.727,23.716
		c2.727,9.126,10.037,14.608,11.858,10.953c1.826-3.649,4.57-7.304,10.042-7.304c5.488,0,13.696,2.75,20.078,0
		c6.395-2.745,8.216-8.209,12.774-8.209c4.562,0,4.562,3.637,14.603,0c10.043-3.649,28.295-16.43,32.859-17.334
		c4.572-0.917,7.304-1.828,14.597-6.382c7.305-4.571,16.441-10.048,18.258-15.525c1.834-5.477,5.471-8.221,9.119-9.125
		c3.654-0.905,17.347-12.781,19.175-18.239c1.82-5.495,8.209-10.048,10.946-12.792c2.75-2.732,9.139-10.042,9.139-14.59
		c0-4.578-0.917-19.186,1.82-21.913c2.738-2.75,10.941-14.608,10.941-19.168c0-4.554-5.477-17.352-0.899-26.46
		c4.555-9.126,3.649,0,3.649,0s-10.953-5.477-8.227-6.381c2.743-0.917-7.286-8.227-7.286-14.608c0-6.399,3.637-16.43,3.637-16.43
		s-3.637-7.31-2.738-11.864c0.917-4.572,34.693,0,34.693,0s0.897,8.215,0,10.941c-0.923,2.75,1.814,8.227,0.897,18.257
		c-0.897,10.048-6.375,10.048-6.375,13.704c0,3.631,0,6.381,0,10.941c0,4.554-4.577,17.353-5.481,21.906
		c-0.917,4.56,1.821,17.341,0,23.716c-1.822,6.399-9.126,15.531-11.876,20.989c-2.732,5.495-6.376,11.876-6.376,15.543
		c0,3.631-4.565,16.418-10.953,18.239c-6.387,1.822-15.513,10.037-20.078,14.584c-4.572,4.578-5.489,20.091-13.698,20.99
		c-8.202,0.935-27.383,15.525-27.383,15.525s-4.564,12.781-12.773,9.114c-8.209-3.637-30.121,11.87-30.121,11.87
		s-10.947,7.31-17.342,4.56c0,0-21.899,4.578-27.389,8.227c-5.471,3.649-8.209,7.304-13.68,3.649
		c-5.478-3.649-8.222-1.827-11.876,5.483c-3.637,7.304-5.16,35.889,10.649,55.379c0,0-17.948,50.485-14.286,86.077
		c3.637,35.592,17.335,60.249,41.063,68.464c23.728,8.208,57.498,19.161,59.325,41.979c0,0,1.822,10.936-27.39,17.335
		C351.244,617.596,291.015,618.513,291.015,618.513z"/>
</g>
<g display="none">
	<path display="inline" d="M461.746,101.583C353.703,79.391,300.42,168.201,300.42,168.201
		c-79.935-106.579-182.055-79.94-235.338-32.568C11.804,183,23.645,249.6,23.645,249.6l25.155,346.352L257.506,576.7l290.104,22.21
		c0,0,25.157-335.988,25.157-350.793C572.767,233.312,569.802,123.799,461.746,101.583z M197.389,346.452
		c0.66,3.292-5.257,11.179-5.257,13.816c0,2.613,5.924,17.097,6.571,20.388c0.667,3.286-10.519,9.87-10.519,9.87
		s-1.982-11.18-3.292-21.71c-1.321-10.507,3.292-16.436,3.292-16.436s-19.072-0.655-28.294,1.31
		c-9.196,1.958-1.964,23.68-1.964,28.27c0,4.602-11.848,9.221-11.848,9.221s0-8.56,0-19.74c0-11.167,4.608-16.447,4.608-16.447
		c-18.418-3.268-2.639-23.668-3.298-16.436c-0.655,7.239,34.864,0.655,40.794,0.655
		C194.097,339.219,196.735,343.166,197.389,346.452z M177.661,272.774h-6.578c0,0-2.631,5.274-3.292,8.548
		c-0.653,3.292,6.584,17.763,6.584,21.71c0,3.946-10.529,9.203-10.529,9.203s-2.625-16.441-3.292-23.68
		c-0.654-7.232,3.292-15.132,3.292-15.132s-11.181,5.274-15.781-2.631c-4.597-7.894,7.894-15.781,5.257-11.84
		c-2.619,3.946,18.424,2.619,23.031,3.946C180.948,264.226,177.661,272.774,177.661,272.774z M136.206,181.981
		c-3.28-9.857,9.875-13.822,8.561-10.512c-1.311,3.292,0,5.929,9.876,3.947c9.852-1.982,15.78,0,15.78,7.893
		c0,7.894,3.946,42.098,3.946,42.098l-11.186,7.233c0.654-7.233-0.654-39.455-3.946-42.747
		C155.951,186.601,139.51,191.852,136.206,181.981z M180.298,525.398l-3.945-0.666c0,0,5.25-4.591,5.911-9.858
		c0.66-5.256-4.603-3.946-8.549-3.946s-9.209-0.673-9.209-7.231c0-6.584,5.917-8.556,5.917-8.556
		c-2.626,3.299,6.577,4.603,11.18,4.603c4.602,0,9.863,1.31,10.53,9.87C192.787,518.16,180.298,525.398,180.298,525.398z
		 M189.495,466.847l-34.854,2.62c0,0-4.607-11.841-7.244-21.704c-2.626-9.863,5.262-14.472,5.262-14.472s-9.863,1.31-11.179-5.929
		c-1.312-7.238,5.262-7.895,5.262-7.895c-1.315,4.603,9.87,1.965,13.812,3.298c3.959,1.311,2.637,10.53,2.637,10.53l-5.917-0.673
		c0,0-1.315,3.316-2.625,7.888c-1.321,4.626,5.251,15.806,5.251,15.806s21.061,0,26.978-3.946c5.917-3.965,7.228-13.816-1.32-20.4
		c-8.549-6.584-13.145,6.578-13.145,6.578h-4.62c0,0-0.653-6.578,7.895-15.133c8.565-8.561,21.056-1.981,23.691,9.203
		C202.008,443.834,189.495,466.847,189.495,466.847z M279.693,262.916L257.5,557.449c-4.445-38.462,11.84-239.75,14.793-294.533
		c2.965-54.76,16.287-71.041,16.287-71.041C279.693,208.156,279.693,262.916,279.693,262.916z M389.486,527.381
		c0,5.238-12.501,9.197-12.501,9.197s1.321-17.108,2.638-24.347c1.311-7.239,10.53-6.562,10.53-6.562
		C387.522,508.284,389.486,522.107,389.486,527.381z M438.169,495.796c-3.28,3.273-7.229,9.196-6.572,13.816
		c0.643,4.596,5.911,21.043,3.935,22.347c-1.964,1.333-13.161,7.238-13.161,7.238l1.333-34.205c0,0,4.597-9.853,6.561-10.524
		l-45.384-2.619c0,0-9.863-5.273-9.209-10.529c0.66-5.28,11.19-7.232,11.19-7.232s-3.292,3.935,1.311,4.59
		c4.612,0.654,43.432,1.311,46.724,3.291C438.169,483.955,441.46,492.504,438.169,495.796z M442.781,415.528h-5.93
		c0,0-3.946,7.894-4.603,11.19c-0.643,3.291,3.293,14.478,2.645,22.364c-0.667,7.894-12.52,11.187-12.52,11.187
		s0.673-32.896,1.982-36.188c1.315-3.292,6.583-9.221,6.583-9.221s-18.424-0.655-25.668-0.655c-7.232,0-16.454,1.328-19.739-8.542
		c-3.273-9.875,8.561-9.875,8.561-9.875c-1.978,9.221,34.865,5.274,43.42,7.256C446.073,405.004,442.781,415.528,442.781,415.528z
		 M415.149,336.594c-4.608,0-13.805-2.631-14.466-10.542c-0.673-7.893,8.542-9.858,8.542-9.858
		c-3.292,7.894,11.186,4.602,18.43,7.894c7.239,3.292,1.965,19.746,1.965,26.972c0,7.256,9.215,17.108,9.215,17.108l-6.584,13.15
		c-4.589-1.964-7.231-20.395-9.868-19.733c-2.613,0.672-9.203,17.769-9.203,17.769l-21.704-1.333l5.263-13.15l11.846,0.655
		c9.853-2.637,11.835-16.436,11.835-22.365C420.416,337.231,419.762,336.594,415.149,336.594z M449.359,302.377l-61.844-3.292
		l5.911-13.144l42.766,1.964c0,0,5.917-11.84,3.946-23.025c-1.971-11.197-13.155-6.578-26.313-7.256
		c-13.144-0.631-20.399-2.613-22.363-10.513c-1.982-7.894,9.876-9.858,9.876-9.858c-0.667,9.858,19.065,6.566,30.899,7.221
		c11.84,0.673,17.771,3.292,18.424,16.459c0.655,13.144-5.262,27.621-5.262,27.621l6.577,0.655L449.359,302.377z M459.884,178.035
		l-4.607,1.327l-13.161,15.781c0,0,17.77,15.132,16.453,21.709c-1.31,6.578-7.894,7.894-7.894,7.894l-32.89-33.55
		c0,0-9.203,2.637-5.257,8.548c3.947,5.929,9.854,15.805,4.596,19.745H396.07v-3.947l6.584-1.327c0,0-6.584-10.531-3.292-16.442
		c3.292-5.929,14.472-10.53,14.472-10.53s-13.816-13.168-13.145-17.746c0.655-4.619,7.228-7.911,7.228-7.911l28.281,27.645
		l10.536-9.876c0,0-12.507-2.637-12.507-7.894c0-5.274,3.292-9.875,7.238-9.875s-1.321,2.637,3.946,3.947
		C450.669,166.868,461.86,164.885,459.884,178.035z"/>
</g>
</svg>
